<svg id="pollution-map" width="967" height="658" viewBox="0 0 967 658" xmlns="http://www.w3.org/2000/svg">
    <title>
        asia
    </title>
    <g fill="none" fill-rule="evenodd">
        <path d="M400.819 227.243c10.156-5.553 16.487 1.31 27.268.178 1.744-.184 3.397-2.76 4.782-1.785 1.21.834-.285 3.395-1.678 3.861-6.017 2.235-15.962-3.93-21.97-3.137-.634.066-8.32 4.719-8.603 5.07-2.788 3.977-.403 8.372-1.496 8.647-2.22.234-4.638-7.523-2.225-10.5 1.01-1.067 2.737-1.409 4.097-2.192 0 0-.159.016-.175-.142zM315.55 228.835c-3.471.525-8.171 12.234-14.011 8.522-.51-.267.167-1.46-.342-1.726-1.068-1.01-2.72-1.477-4.072-2.136-1.335-.5-3.554-.267-4.338-1.626-1.76-3.02 5.836-16.154 8.59-17.404 1.677-.818 3.646-.384 5.423-.25.81.075 1.51.642 2.128.417 2.503-.583 2.164-11.442 10.656-.8 1.643 1.91-4.9 3.72-4.474 6.238.325 1.568 2.185 2.494 2.193 4.095.167 1.585-1.11 3.16-1.753 4.67zm-13.7-5.288c-1.377.625-1.852.675-2.211 1.834-.36 1.16-1.953 2.769-1.411 3.352.559.743 1.435 1.452 1.827.61.376-1.001 1.77-1.468 1.811-2.594.2-1.143 1.11-3.16 1.11-3.16l-1.126-.042z" fill="#ECECEC"/>
        <path d="M244.048 277.524c-.468 1.65-.093 3.694-1.42 4.795-.584.542-2.795-.668-2.227-1.368.709-.876 2.094.1 3.237.3l-.793.084c-1.794-.292-3.462-.918-5.256-1.21-1.46-.167-2.887-.017-4.348-.184-8.886-.668-12.173-4.488-15.35-11.844-1.093-2.769-7.518-2.895-6.916-6.322.693-4.078 2.43-8.907 4.984-12.059.426-.525-.768 1.843-.117 1.935 1.285.025 2.645-.759 3.338-1.793 3.455-3.727-9.896-2.644 3.756-6.963 2.17-.709 5.348 3.603 6.416 1.569 1.069-2.035-3.111-3.679-4.137-5.814-.8-1.518-3.517-18.214-3.992-21.208-1.275-7.556 2.587-2.835 4.675-10.424.5-1.334-.776-2.802-1.401-4.178-.467-1.393-2.345-2.477-2.019-3.954.81-2.968 5.4-2.009 7.01-3.46 1.31-1.259 1.06-3.636 2.387-4.737.585-.542-.1 2.094.567 2.344.651.092-.216-2.06.435-1.968.792-.083.183 1.743.85 1.993 2.003.75 4.272.993 6.317.618 1.869-.517 3.48-1.968 5.107-3.26.6-.384.643-1.51 1.435-1.593.46-.209 1.96 1.877 4.464 1.293.476-.05.918-.417 1.394-.467.142-.175.142-.175.3-.192 2.395-.091 4.832-1.309 6.993-.574 2.16.734 2.81 3.87 4.688 4.954 1.51.642 4.039-1.226 4.823.134 4.287 7.239-5.15 7.43-6.002 11.525-.359 1.159 1.785 1.734 2.394 2.952.242.776-1.81-.45-2.67-1-2.035-1.069-3.963-2.628-6.124-3.362-8.168-2.987-6.392 3.235-4.515 7.363.192.3-.826-.234-1.177-.517-2.21-1.21-7.8-5.589-7.058-3.103 1.726 5.746 3.261 5.104 2.692 11.892-.058.968-1.594 1.61-1.352 2.385.209.46 7.442 6.748 7.809 7.19.509.267-6.534 3.41-5.15 7.43 1.626 4.796 5.625-4.436 9.404-.508 1.068 1.01.633 2.978.8 4.562.066.634-.501 1.335-.276 1.952.676 1.851 3.395 3.328 3.12 5.28-.026 1.283-2.779-.51-3.822.24-.6.384 1.01 1.977.216 2.06-5.131 1.501-8.14-13.402-11.906-1.952-4.484 13.768.409-.684 4.17 6.13.576.9-1.96 1.167-2.02 2.135-.058.967 2.595 1.81 1.66 2.068-1.234.45-2.419-1.668-3.67-1.376-1.077.433-1.085 1.876-1.302 2.86.066.634.609-1.826 1.135-1.4 6.34 5.42-.37 11.733-1.556 18.747zM293.338 307.268c.926 1.184 3.896 1.993 4.88 2.21 1.32.342.793 2.961 1.953 3.32 2.16.734 4.756-.5 6.717-1.668 1.06-.592-.366-3.486.777-3.285 4.364.342 7.518-.15 10.906-1.467 3.388-1.317 1.912-7.73 6.226-7.864 1.127.042 2.32.718 3.43.601.967.059 1.619-2.894 2.32-2.326 4.488 3.052 9.22 3.837 13.332 4.846 1.16.359 1.143 3.245 2.445 3.428 4.872.61 3.146-5.137 9.245-.491.526.425 1.569-.325 1.677-.817 2.472-6.988 4.473-.15 6.442-2.76.443-.367 1.003-5.712 4.124-6.521 5.766-1.567 3.078 3.361 3.879 4.879.417.917 2.295-1.042 2.445.384-.01 1.443-4.742 9.79-.629 10.8 4.43.976 8.997-5.912 12.852-5.837 9.787.093.834 1.835 2.31 2.16 1.811.451 4.214-1.083 5.625-1.392 1.885-.358 2.528 1.176 3.546 1.71l.191.3c-1.251.292-4.522-.325-3.771.717.35.284.717.726 1.05.851l-.458.209c-1.302-.184-2.278 1.2-3.371 1.475-2.329.726-4.765-1.101-7.16-1.01-7.025.258-9.888 2.001-14.694 5.07-1.202.767 2.91 4.82 2.268 6.33-1.035 2.351-2.747 5.896-5.993 7.038 0 0 1.11 2.927.7 3.61-2.045 3.42-7.042.1-9.77.067-.793.083 3.186 5.913 2.601 6.455-1.435 1.593-6.467 1-7 2.017-.343 1.318-2.505 3.628-2.547 4.754.017.158.116 4.153.133 4.311-4.349 5.904-7.226-1.643-9.63-.11-1.501.96-3.77.718-4.923 1.96-.726.717 2.12 1.86 1.502 2.085-9.27 1.776-12.315-4.313-13.511 10.232-.126.333-.726.717-1.202.767-7.051 1.542-25.041 1.19-31.399-1.346-.333-.125-11.07-6.206-11.23-6.19-.35-.283-1.318-.341-1.017-.533 2.554-3.152 9.638-4.377 10.156-8.597.56-5.346-3.596-2.186-7.166-5.655-.7-.567 1.461-5.921 1.411-6.397.276-1.951-1.558-7.205-.09-8.481 1.027-.91 2.42-1.376 3.447-2.285.426-.525-3.638-1.06-2.853-2.744 2.32-5.37 8.287-8.08 9.824-14.81zM818.01 524.153c3.513-1.651 7.235-2.844 7.243-4.286-.058-2.077-4.605-1.118-5.28-2.97-1.285-3.069 17.047-4.034 9.714-8.23-1.878-1.084-4.523-.326-6.884.083-.476.05.133 1.267-.36 1.159-1.843-.768 2.805-3.82-2.594-1.81-1.394.467-2.112 2.785-3.572 2.618-1.16-.359.744-3.602-.525-3.47-1.919.042-2.77 4.137-4.757 3.545-1.81-.45-4.811-13.753-9.87-6.973-2.52 3.469-1.796 11.884-4.825 15.086-1.152 1.242-3.547 1.334-4.173 3.002-.376 1 2.687 1.16 2.486 2.302-.326 1.476-2.37 1.85-3.555 2.776-.284.35-1.169 1.084-1.219.609.092-.65.894-2.177.451-1.81-1.944 1.326-3.154 3.536-5.082 5.02-1.027.91-2.77 1.093-3.764 2.318-2.996 3.52-4.016 12.118-7.363 15.353-2.495 2.185-13.71 5.286-14.47 8.73-.31 1.635.508 3.311.182 4.787-.167 1.46-1.81 2.594-1.82 4.036-.075.81 2.095.1 1.844.768-.217.984-3.17.333-2.611 1.075 1.084 1.168 5.648.368 4.413.818-6.617 2.618-6.174-.793-11.456-.718-1.443-.009-2.337 2.168-3.78 2.16-1.46-.168-2.27-3.287-3.47-2.52-.92 3.461 9.134 9.133 11.554 7.758 2.88-1.585 2.746-2.852 6.167-3.853 4.815-1.467 6.867-.24 8.68-5.878.734-2.16 8.277-3.594 8.436-3.61 1.569-.326 4.622 1.276 6.667.9 1.235-.45 1.544-2.084 2.27-2.801 1.043-.75 6.275-1.3 6.509-2.126.876-2.335.826-2.81 1.594-4.654.802-1.526-2.227-1.367-1.25-2.752.993-1.226 2.32-2.326 3.646-3.427.443-.367-1.618-.15-1.51-.642-.033-.317-.266-2.536-.14-2.87 1.068-2.034 2.394-.09 2.987-2.075 1.36-3.828-1.451-4.654-1.117-7.573.318-3.077 1.461-2.877 1.737-4.828.2-1.143 13.435-3.335 18.867-5.027zm-157.475 26.804c1.008 5.02-3.347 3.236-4.74 3.702-.76.4-3.189 3.22-3.823 3.286-2.996.475-.007-4.645-1.184-5.162-1.668-.626-1.31 1.259-2.662.6-1.193-.676-4.997-3.32-7.008-2.628-.776.242.266 2.535-.368 2.602l-.158.017c2.978 2.41 3.619 10.033 4.511 10.9 1.068 1.01 2.879 1.46 3.663 2.82.434 1.075-1.035 2.35-.618 3.268 1.918 3.003 7.125 3.737 8.951 7.39.593 1.06-.493 2.936.542 3.628 1.402 1.134 3.588.584 5.256 1.21 2.654.842 16.346 4.53 17.714 5.347.843.392 1.01 1.977 1.96 1.877l.634-.067.142-.175c.768-1.843 3.865-4.411 4.974-1.484l1.994-.85-.083-.792c-3.595-8.274-7.675-5.922-11.204-10.518-8.383-11.134 8.005-13.818-16.099-25.062-.667-.25-1.51-.643-2.353-1.035l-.041 1.126zM784.699 336.848c2.027-.533 3.988-1.7 6.083-1.6.634-.067-1.01 1.067-.927 1.86.083.792 1.385.975 1.468 1.767.342 1.727-.426 3.57-.401 5.33.149 4.47 3 16.346.738 20.749-.96 1.542-3.989 1.7-9.52-6.69-3.086-4.962-1.039-17.513 2.559-21.416zM2.203 3.357C.243 1.48 2.87.563 3.079 1.022c1.135 1.643.25 2.377-.876 2.335zM436.626 564.878c-1.15-4.845-2.368-7.28.268-3.552.192.3-.225-.617-.117-1.11.585-3.585-1.25-8.84 1.738-10.916 1.661-.975 3.839-.083 5.708-.6.475-.05-.985-.217-1.335-.5-1.986-.593-4.54-.484-5.657-1.969-1.276-1.468 3.404 1.885 5.29 1.527.951-.1-3.012-2.728-2.152-2.177 4.28 2.594 15.691 16.614 17.317 21.41 2.16 6.822-8.296 12.567-13.803 12.024-6.317-.618-6.84-10.175-7.257-14.137z" stroke="#D8D9DF" fill="#ECECEC"/>
        <path d="M790.207 528.036c2.412-2.977 6.215 5.755 1.634 3.353-1-.376-1.376-2.419-1.634-3.353zm-.4-.759c-.218.984-2.104 1.343-1.829 2.435.342 1.726 1.802 1.893 1.568 2.719-.56 2.302-2.654 5.245-5.098 1.818-1.293-1.627-1.26-1.31-2.862-1.302.851-1.05 2.595-1.234 3.622-2.143 1.485-1.117 2.587-2.835 4.04-4.27l.558.743z" stroke="#D8D9DF" fill="#ECECEC"/>
        <path d="M869.99 622.182c5.098-1.817 8.402-.883 13.442-1.733.476-.05.184-1.3.801-1.526 2.17-.709 4.807-.024 7.118-.908 1.377-.625 1.67-2.418 2.696-3.327.868-.893 1.928-1.485 2.812-2.219.3-.191 1.169-1.084 1.044-.75-5.034 8.54-14.388 12.566-23.868 13.883-1.568.325-6.55 3.252-6.726 3.11-1.025-2.135 1.787-4.353 2.68-6.53zm-59.857 17.666c1.92-.041 13.177-4.268 13.351-1.083.29 10.383-10.013 2.335-13.35 1.083zm19.376-4.76c1.444.009 3.422-1 4.331.026 3.687 4.579-9.481 10.448-8.487 6.179.234-.826 2.077-.059 2.486-.742.96-1.543 1.06-3.636 1.67-5.463zm9.304-1.458c1.252-.292 2.47-.9 3.755-.876 1.62.15 3.07 1.76 4.656 1.594 1.268-.134 3.705-1.35 2.954-2.393-.992-1.819-4.572-.801-5.723-2.603-.734-.884 17.59-3.45 15.278.477-.41.684-6.15 4.01-7.61 3.844-.81-.075.05-2.569-.726-2.327-.918.417-10.65 11.533-12.977 9.214-1.61-1.593.326-4.52.393-6.93zm20.668 2.954c6.184-3.694 6.434-4.36 13.042-2.492 1.986.592 5.04-.85 6.191.951 5.022 8.124-12.408 2.426-12.566 2.442-2.078.059-3.847 1.526-5.958 1.267-.81-.075-.467-1.392-.709-2.168zm-97.212 14.543c-9.228.65-13.86 3.86-21.328 4.485-2.854.3-5.223-.893-8.219-.418-1.902.2-3.772.717-5.658 1.075-.634.067-1.535.642-1.76.025-.434-1.076.56-2.302.426-3.57-.016-.158-8.77.442-13.81 1.292-.95.1 2.128.417 2.854-.3 1.61-1.451 1.346-10.074 4.95-9.332 8.035 1.719 8.645-3.151 13.06-2.334 1.3.184 2.402 1.51 3.687 1.535 2.411.067 4.606-1.926 7.051-1.542 1.953.276 3.154 2.552 4.872 3.653 1.193.676 7.335-1.892 7.936-2.275 1.71-.5 8.962-.141 9.688-.858 1.151-1.243.902-3.62 2.212-4.879 1.135-1.4 12.116-.633 14.81-.916 1.903-.2 3.623-2.143 5.291-1.517 3.371 1.568 2.944 8.181 9.12 5.93 1.835-.833 9.212-6.896 11.815-3.484 1.118 1.484-.551 3.902.107 5.595.45 1.235 3.004 1.127 2.82 2.428-.217.984-2.144-.576-3.27-.618-3.714-.25-7.585-.484-11.34.391-2.045.375-3.605 2.301-5.6 3.152-7.093 2.668-22.238 3.458-29.714 2.482zm100.533-51.58c-12.584 5.329-5.415-4.236-7.55-12.343-1.925-7.647-3.97-1.184-8.652-1.493-6.316-.618 1.555-12.66 1.305-15.037-.557-6.83-5.089-5.713.92-12.592.426-.526 1.836 2.21 1.753 1.417-.234-2.218-1.1-4.37-2.252-6.171-.526-.426-2.361.408-2.11-.259.233-.825 2.235-.075 2.47-.9.45-1.81-1.518-8.332 1.837-9.966 1.06-.592 2.42 1.668 3.129.793 1.594-1.61.468-4.696 1.904-6.288.425-.526 18.199-2.234 20.368-2.942.776-.242 2.287-2.644 3.697-2.952 2.186-.55 4.932-.358 6.876-1.684 2.262-1.36 3.964-3.46 5.191-5.512 1.227-2.051.928-4.904 2.522-6.513.726-.717 2.127.417 3.145.951.159-.017-2.814 11.35-6.72 13.843-6.893 4.57-18.467 5.786-26.302 9.013-1.694.658-2.78 2.535-4.473 3.193-4.607 1.926-9.863.717-9.556 8.214.224 3.661 1.784 4.779 4.504 6.255 13.491 7.874 7.135-.75 12.977-6.17.884-.734 2.32.718 3.396.284 1.836-.834 11.616-8.43 14.57-7.78 8.577 2.303-5.85 3.82-5.85 3.82-1.753 1.626-1.436 4.636-2.997 6.563-1.102 1.717-3.288 2.268-4.582 3.685-.726.717-.56 2.302-1.46 2.877-1.044.75-2.762-.35-3.805.4-1.344.942 2.544 1.335 9.352 5.105 1.702.943 4.523.326 5.499 1.985.8 1.518-2.855 3.344-1.896 4.846 1.152 1.801 9.563-.525 8.794 4.362-.276 1.952-11.374 6.162-13.71 5.286-1.001-.375.843-2.652-.033-3.36-4.38-3.546-3.94 5.22-8.352-1.686-.384-.6 3.749-11.609-3.194-7.515-1.961 1.168-4.19 2.844-4.908 5.162-.2 1.143 2.195 1.051 3.07 1.76 1.052.85.901 2.469 1.035 3.736.458 2.836 1.692 5.43 1.975 8.124.342 1.726-1.093 3.319-.752 5.045.309 1.41 3.404 1.885 2.903 3.22-.325 1.475-2.645.758-4.038 1.225zm-269.767-30.441c1.903-.2 3.58-1.017 5.357-.884 2.428.226 4.48 1.452 6.784 2.01 3.604.744 8.378-2.642 11.156-2.133 1.143.2 8.368 4.888 8.769 5.647.575.9-1.21 2.21-.493 2.935.559.743 1.902-.2 2.87-.141 2.428.225 12.09 3.696 13.984 4.938 1.56 1.118 1.968 3.478 3.512 4.438.859.55 2.17-.71 3.012-.317 4.83 1.735-3.932 6.821 7.575 4.971 1.269-.133-1.852-2.369-1.651-3.511 1.061-6.68 3.262 2.06 6.95 3.595.86.55 2.203-.392 3.187-.175 1.46.167 3.096.476 4.322 1.468 1.56 1.118 2.144 3.62 3.988 4.388 1.51.642 4.907-2.118 5.09-.375.391 2.201-3.38 2.918-4.29 4.936-.267.51 1.018.534 1.652.468 11.757-2.518-10.155-.535 7.177-4.92 1.41-.308 3.095.476 4.305 1.31 4.455 2.736-3.022 4.803-3.89 5.695-.884.734 3.455-.683 3.588.584.667 3.295-8.186 5.988 9.011 3.379 1.569-.325 3.051 13.777 4.07 14.311 1.684.784 1.727-3.386 2.687-4.928.284-.35.826.233 1.143.2 2.203-.392 4.514-1.275 6.784-1.033.492.108-.184 1.3.342 1.726 1.626 1.751 4.705 2.069 5.731 4.204.642 1.534-1.936 2.927-2.087 4.545-.092.65 1.494.484 1.56 1.117.292 1.251-.876 2.335-.743 3.603.375 2.043 4.578 11.534 2.066 13.56-1.627 1.293-3.787-2.485-5.832-2.11-1.093.275-.209 2.585-1.093 3.32-1.152 1.242-3.038 1.6-4.573 2.242-1.377.625-14.36-6.982-18.79-7.958-4.113-1.01-21.659-10.86-25.246-14.489-2.327-2.318-4.42-8.506-8.083-11.326-1.752-1.418-4.055-1.977-5.807-3.395-1.05-.85-1.217-2.435-2.41-3.11-1.669-.626-3.538-.11-5.349-.56-1.477-.325-.934-2.785-1.701-3.986-1.585-2.878-4.163-4.53-4.037-7.907-.05-.475-.76.4-1.093.275-.526-.425-1.085-1.167-1.752-1.418-2.002-.75-3.988-1.343-6.116-1.76-.65-.092-1.502.96-2.044.375-1.26-1.31-1.16-3.402-2.26-4.729-.543-.583-1.636-.308-2.303-.559-2.495-.859-3.638-4.103-5.99-5.137-1.352-.66-2.854.3-4.172-.043-6.15-2.077-12.365-7.832-14.867-13.336zm117.86 38.558c1.369.817 2.72 1.476 3.805 2.644 1.084 1.167 1.426 2.894 2.21 4.253.993 1.818 4.222 3.562 3.103 5.121-1.26 1.735-4.472.15-6.032-.968-1.719-1.1-1.1-4.37-2.961-5.296-2.178-.892-5.05 2.293-6.801.875-3.662-2.82 3.764-5.362 6.677-6.63zm107.115-83.511c-3.672 1.667-6.96 3.935-5.626 7.48.626 1.376 3.263-.984 4.473-.15.7.567-1.878 1.96-1.336 2.544 3.045 3.044 7.135-3.794 10.27 4.687 3.553 9.4-4.472.15-1.452 4.479 1.485 1.926 13.267 1.169 13.692 3.687 1.208 6.922-10.473 2.543-11.407 2.801-.918.417 2.21 1.21 2.169 2.336-.217.984-2.186.55-2.72 1.567-.927 1.86-1.662 4.02-1.429 6.238.409 2.36 4.572 3.845 3.461 7.006-.734 2.16-7.185 3.318-8.128 5.02-.534 1.017 1.185 2.118.809 3.119-1.069 2.034-3.505 3.252-4.574 5.287-.234.825 2.087-1.501 2.328-.726.61 1.218-1.636 2.735-.885 3.778.734.884 3.021-1.76 3.296-.667.467 1.393-2.178 2.152-2.345 3.61-.493 2.936 2.985 7.057-1.296 10.55-1.911 1.643-4.915 3.561-7.002 5.062-1.786 1.31-3.538 2.935-5.34 4.086-2.104 1.342-1.151-4.846-2.477-6.789-.384-.6-.343 1.318-.96 1.543-.601.383-1.602.008-2.27-.242-.667-.25-.8-1.518-1.418-1.293-1.677.817-2.204 3.436-4.09 3.794-.934.259-.233-2.218-1.059-2.452-.984-.217-1.594 1.61-2.545 1.71-1.46-.167-2.52-2.62-3.896-1.994-1.66.976-1.328 4.145-2.972 5.279-1.026.909-2.904-.176-4.28.45-1.377.625-1.854 3.719-3.347 3.235-2.32-.717-.45-7.322-2.777-6.597-.776.242.024 1.76-.718 2.318-1.044.75-12.76 5.186-14.32 4.069-1.05-.85.493-2.936-.258-3.978-1.184-2.119-4.138-2.77-5.005-4.921-.8-1.518 1.11-3.16.627-4.712-2.602-6.455-4.748-.943-8.67-1.652-5.08-1.068-.265-5.58-1.274-7.556-2.353-4.078-7.193 1.717-6.057-5.772.243-2.268 2.154-3.91 3.047-6.087 1.052-2.194.719-5.363 2.663-6.689-.918 3.461 9.135 9.133 11.555 7.758 2.88-1.585 2.746-2.852 6.167-3.853 4.815-1.467 6.867-.24 8.68-5.878.734-2.16 8.277-3.594 8.436-3.61 1.569-.326 4.622 1.276 6.667.9 1.235-.45 1.544-2.084 2.27-2.801 1.043-.75 6.275-1.3 6.509-2.126.876-2.335.826-2.81 1.594-4.654.802-1.526-2.227-1.367-1.25-2.752.993-1.226 2.32-2.326 3.646-3.427.443-.367-1.618-.15-1.51-.642-.033-.317-.266-2.536-.14-2.87 1.068-2.034 2.394-.09 2.987-2.075 1.36-3.828-1.451-4.654-1.117-7.573.318-3.077 1.461-2.877 1.737-4.828.2-1.143 13.435-3.335 18.867-5.027zm102.296 91.78c-3.055 4.486-9.466 13.651-13.738 12.658-1.476-.325 2.337-2.168 2.504-3.627.25-.668-1.518.8-1.902.2-.993-1.819-.066-3.678 1.036-5.396-.125.333.05.475.7.567 1.653.467 2.963-.792 3.38-2.918l-.466-1.393c1.36-.784 2.895-1.426 4.08-2.352l4.406 2.26zm17.196-72.779c5.741-3.327 24.5-13.95 28.504-3.316.241.775-1.57.325-2.362.408-5.44.091 6.317-2.426-8.394-.56-2.06.217-28.357 19.963-17.748 3.468zM683.347 589.572c.768-1.843 3.865-4.411 4.974-1.484l1.994-.85c-.134 1.776-4.556 2.401-7.11 2.51l.142-.176zM816.427 435.885c3.07-1.284 8.478-4.736 11.907-1.091 3.412 3.486 2.21 7.297-1.145 8.932-1.06.592-7.025-5.83-10.762-7.84zm.744-47.82c.192.3.542.584.734.885.375 2.043-.168 4.503.967 6.146.96 1.501 3.37 1.568 4.93 2.686 4.397 3.703-3.765 11.45-4.358 13.435-1.436 4.636 5.997 12.827 9.718 14.679 4.755 2.544-.083-3.837 3.78-5.204 1.695-.659 3.614-.7 5.3.084 1.16.359.983 3.26 2.06 2.827 1.218-.608-.525-3.47.535-4.061 1.977-1.009 4.831-1.309 6.425.126 1.067 1.009-3.021 1.759-2.872 3.185.284 2.694 7.259 5.005 8.377 6.49.592 1.058-2.904-.176-3.496-1.235-.384-.6 2.353-2.01 1.402-1.91-2.22.233-4.064 2.51-6.476 2.443-.317.033-8.634-7.423-9.97-4.88-.893 2.177 3.304 3.978 3.236 6.389.134 1.267-1.785-1.735-3.103-2.077-2.161-.734-4.69-1.91-7-1.027-1.695.659-1.362 3.828-2.88 4.628-2.12 1.185-8.696 2.677-8.26-2.335.133-1.777 3.079-2.727 2.42-4.42-.467-1.393-3.137-2.394-4.48-1.452-1.185.926 1.826 3.653.641 4.579-4.064 2.51-9.485-9.417-9.693-9.875-.926-1.185-3.438-2.202-2.603-3.412.835-1.209 3.02 1.285 4.414.818.951-.1 1.293-1.417 1.193-2.368-.275-1.093-1.927-1.56-2.36-2.636-1.001-3.42-3.81-13.377-3.401-17.105.376-4.045 11.9-2.692 14.82-5.402zm56.97 58.576c3.078.317 10.355-.608 11.346 4.254.117 1.11-2.178 2.152-1.602 3.052.575.901 2.295-1.042 3.154-.491 1.401 1.134.575 3.944 1.834 5.254 1.277 1.468 3.454 2.36 4.13 4.212.5 1.71-1.06 3.636-1.036 5.396-.15 1.617.508 3.31.358 4.928-.234.826-1.385-.976-1.785-1.734-1.393-2.578-1.293-4.67-4.947-5.889-.668-.25-1.185.926-1.277 1.576-3.073 10.416 12.046 10.91 2.567 15.27-1.377.626-1.318-3.386-2.953-3.694-.985-.217-.068 2.41-.986 2.827-1.677.817-8.861 1.091-10.947-.452-7.659-5.763 5.66-10.207-7.825-10.392-5.632-.209 1.618 3.195-.943 4.745-1.36.784-2.645-2.285-4.055-1.976-1.394.466-.618 3.269-1.837 3.877-1.093.275-1.551-2.56-2.644-2.285-3.847 1.526.781 13.535-5.159 8.873-.876-.71.91-2.018 1.035-2.352.1-2.093-.45-4.278-.19-6.388.225-2.427 4.398-2.385 5.8-4.294 1.56-1.927.318-6.122 2.663-6.689 2.361-.408 2.61 5.013 4.88 5.255 6.634.584 3.156-6.58 4.858-8.681.71-.876 2.795.667 3.33-.35.66-1.351-1.952-3.32-.959-4.545 1.244-1.893 5.549-.584 6.426-2.919.734-2.16-2.21-4.253-3.237-6.388zm-58.879 10.193c.325 1.568.492 3.153 1.276 4.512.75 1.043 3.146.951 3.12 2.236-.092 3.694-5.875 5.103-7.286 8.455-.768 1.843.116 4.154-.635 6.155-.969 2.985-6.478 11.575-9.724 12.717-.459.208-.258-.934-.15-1.426 1.829-5.48 4.666-5.937 6.452-10.29 1.378-3.67 2.956-8.482 4.984-12.06.551-.858 2.153-.866 2.212-1.834.025-1.284-1.677-2.227-1.827-3.653-.008-1.601 1.11-3.16 1.578-4.812zm37.918-11.354c1.994 2.193-.369 8.69-.202 10.274.392 2.202 2.811 3.87 3.044 6.088.075 2.235-9.061-.81-9.77-2.978-.484-1.551 3.146-2.093 3.614-3.744.726-3.761-3.938-3.912-4.372-4.988-2.412 2.977-5.19 5.512-5.35 5.529-.9.575-.833-1.835-1.092-2.769-.541-3.628-.048-6.563-2.476-9.833 3.746.568 5.782 1.636 9.187.477.918-.417 1.419-1.752 2.261-1.36 2.337.876.876 3.753-1.378 6.714 1.202-.767 3.18-1.776 6.534-3.41zm1.39-17.288c2.936.492 6.425-2.919 8.786-3.327 2.679-.442 3.053 4.645 4.855 6.539 1.276 1.468 3.42 2.043 4.538 3.528.543.584-1.301-.184-2.094-.1-1.902.2-3.814 1.842-5.482 1.217-1.827-.61-2.127-3.462-3.83-4.404-1.209-.834-2.87.141-4.221-.518-1.193-.675-1.66-2.068-2.553-2.935zM685.405 407.842c-2.861-1.301-6.333 2.268-9.437.191-.525-.425-1.184-2.118-3.079-.317-.726.717-.55-2.185-1.284-3.07-.91-1.025.31-4.678-.975-4.703-2.237.075-4.673 1.292-7.035 1.7-2.52.426-3.47-2.518-5.882-2.585-2.253-.084-2.955 5.437-3.84 6.17-3.129 2.252-4.997-.275-5.532 3.786.016.159-.109.492-.267.51-3.664.224-6.316-3.663-7.778 2.258.017.159-4.78-1.26-5.448-1.51-.667-.25-1.269 3.178-1.553 3.528-.3.192-.617.225-1.076.433 2.277 1.844 4.33 3.07 6.148 5.122.176.141.476-.05.776-.242 1.486-1.117-.692-2.01 1.644-1.134 2.829.984-3.689 4.553 3.637 7.147 4.83 1.735 7.994-3.243 7.994-3.243 1.97.434 5.407-.408 5.449 1.51-.042 1.126-2.955 2.393-1.812 2.593 2.128.418 5.124-.057 6.15 2.078.241.775-1.694.658-1.42 1.75.91 4.07-4.197 1.243-6.408 3.078-.743.558 1.894 1.242.884 2.31-.426.525-1.602.008-1.452 1.434.033.317.65.092.826.234 1.969.434 11.522 1.352 12.415 2.22.192.3-.576 2.142.458 2.835 1.894 1.243 2.395-.092 3.096.475 4.347 3.228 8.418 5.364 12.314 7.357.843.392.375 2.044.792 2.961.176.142 7.802 2.544 9.387 2.378.968.058-1.244 1.893-1.97 2.61-1.327 1.1 5.757 2.92 5.84 3.712.575 3.944-.517 1.175-1.494 2.56-.567.7.976 1.66 1.393 2.577.725 2.327-.919 3.46-.318 6.121.016.159 3.378 3.17 3.553 3.311.768 1.201-.15 4.662-.117 4.98.024 1.759 2.727 3.077 1.85 5.412-.876 2.335-1.935-.117-3.37 1.476-2.004 2.293-6.627 4.06-6.06 6.404.034.317 1.018.534.701.567-3.705 1.35-3.17.333-6.033 2.076-.601.384 1.068 1.01.976 1.66.083.792 3.378 3.17 3.57 3.47.209.458 1.068 1.009.768 1.2-1.552.484-4.147-1.326-4.606-1.118-6.459 2.602-6.701 4.87-10.365 8.139l4.48 1.451c.668.25 1.494.484 1.385.976-.142 3.22-3.348 9.324.574 10.033 1.477.325-.543 2.46-.401 2.285 8.945-3.343.342-1.318 5.583-6.354 1.753-1.626 5.625-1.392 6.026-3.677.259-2.11-6.375-2.695-4.956-4.446 1.72-1.943 7.192 4.37 7.877 1.735 1.778-5.954-2.41-9.198-.365-9.574 4.23-.925.858 3.595 5.398 1.035 10.632-5.603 3.08-2.727 6.994-6.663 1.894-1.8 3.789-3.602 5.858-5.261.284-.35 2.061-.217 1.995-.85-.083-.793-.976-1.66-.742-2.486.409-.684 2.186-.55 2.103-1.343-.217-2.06-2.144-3.62-2.519-5.662-1.442-9.14 5.865 2.427 1.895-4.846-1.585-2.877-8.732-17.506-10.1-18.323-7.242-4.846.758 5.688-7.843-4.462-.35-.284.66-1.351.167-1.46-1.652-.467-3.471.525-5.123.058-3.463-.918-11.113-5.08-13.933-7.507-1.227-.993-1.301-3.228-2.528-4.22-4.538-3.528-10.355.607-9-10.91.877-8.423 1.476.326 5.308-7.446 2.229-4.72-2.894-4.662-.858-6.639 1.452-1.434 4.44-.466 6.225-1.776.743-.558-.85-1.993-.283-2.693 1.369-2.227 3.063-2.885 4.773-3.386z" stroke="#D8D9DF" fill="#ECECEC"/>
        <path d="M621.34 522.715c.059-.967-.025-1.76.034-2.727-.15-1.426 6.76-8.881 6.653-11.433-.092-2.394-5.573-7.265-7.09-9.508-.943-1.343 1.652-2.577-.442-5.721-2.477-3.745-7.776-3.829-10.253-7.574-4.154-5.971 2.52-3.469 2.112-5.829-.033-.317-1.342-5.146-1.2-5.32 1.419-1.752 3.538.108 2.854-3.345-.425-2.518-1.911 1.643-2.12 1.184-.542-.583-.608-1.217-.992-1.818-.542-.584-1.068-1.009-1.61-1.593-3.287-3.82-10.487-9.792-13.122-13.52-.751-1.042 3.57.426 3.755-.875.058-.967-1.485-1.927-1.268-2.91.476-3.095 1.453-4.479 1.896-7.89.125-.333 3.696.092 7.893-1.15 1.711-.5.577-2.143.794-3.127.267-.509 3.296-.667 4.18-1.4.443-.368-1.576-1.277-1.15-1.802 1.101-1.718 2.97.809 4.814-1.468l1.018.534c.083.792 4.481-1.592 4.572.801.084.793-2.079 6.146 1.059 5.496 1.11-.116 4.807-3.068 6.192-2.092.717.725-.36 1.159-.276 1.951.258.934 1.91 1.401 1.869 2.527.283 2.694-1.411 3.353-1.337 5.588-.075.809 1.91 1.4 1.618 3.194.008 1.601-3.088 4.17-1.452 4.478 3.971 1.185 6.935-5.695 9.605-7.738.726-.717 5.69 2.286 5.849 2.269 2.912-1.267 2.972-5.279 4.457-6.396 1.627-1.293 4.314-.133 6.167-.809.917-.416 1.56 1.118 2.26 1.685 2.295 2.002 7.343 2.753 7.834 5.906.259.934-.15 4.661.758 5.687 1.852 2.369 6.2 2.553 6.792 3.612.85 1.993 2.27.242 3.037 1.443.8 1.518-.118 1.935-.81 2.969-.551.859 1.71-.5 1.351.659-.876 2.335.759 2.644.792 6.005.05.475-.076.809-.218.984l-1.343.942c-.3.192-.601.384-.885.734-.158.016-.142.175-.142.175-1.86 2.118-19.992-1.103-22.782 12.007-.233.825-1.919.041-2.311.883-1.035 2.352 7.974 11.819 8.641 15.113-1.56-1.118-2.285-3.445-3.97-4.229-1.002-.375-1.962 1.168-2.788.934-1.335-.5-1.818-2.052-3.011-2.727-1.56-1.118-8.211 1.183-11.524 1.691-2.378.25 1.795-5.795-.149-7.514-.542-.583-8.895.775-9.546 3.727-.217.984 1.719 1.101 1.802 1.894.583 2.501.216 5.103.624 7.464.684 3.452-5.068 14.31-4.351 18.08.15 1.426-1.47 7.363 1.2 8.364 1.985.593 4.222-2.526 6.083-1.6 1.685.784.892 3.911 2.026 5.554.718.726 1.97.434 2.829.985 2.403 1.51 2.168 5.379 3.544 7.798.4.759 1.86.925 1.96 1.876.034.317-.9.576-1.376.626 3.471-.526 12.683 1.71 18.006 3.554-.159.017-.176-.142-.176-.142l-.041 1.126c1.008 5.02-3.347 3.236-4.74 3.702-.76.4-3.189 3.22-3.823 3.286-2.996.475-.007-4.645-1.184-5.162-1.668-.626-1.31 1.259-2.662.6-1.193-.676-4.997-3.32-7.008-2.628-.618.225-.117 1.935-.226 2.427l-.3.192c-3.68-2.978-13.423-13.329-17.804-13.83-1.143-.2-1.686 2.26-2.829 2.06-4.238-.676 1.456-16.654 1.54-18.906-.034-.317-.192-.3-.159.017zm39.92 27.525c-.175-.142-.333-.125-.508-.267.175.142.333.125.509.267zm.69.088l-.197.02.197-.02zm-.333-.125l-.198.02.198-.02z" stroke="#D8D9DF" fill="#ECECEC"/>
        <path d="M696.866 466.555c-1.71.5-3.464 5.17-5.875 5.103-.476.05-.718-.725-1.21-.834-1.176-.517-6.734 1.509-6.617 2.618.258.934 3.579 2.027 1.951 3.32-1.327 1.1-2.778-.51-3.921-.71-1.494-.484-2.12 1.184-3.438.842-.81-.075-2.353-1.034-1.769-1.576 1.152-1.243 2.487-.742 2.446-2.66-.033-3.361-1.668-3.67-.792-6.005.36-1.16-1.902.2-1.351-.659.692-1.034 1.61-1.45.81-2.969-.768-1.2-2.187.55-3.037-1.443-.593-1.06-4.94-1.243-6.792-3.612-.909-1.026-.5-4.753-.758-5.687-.491-3.153-5.54-3.904-7.834-5.906-.7-.567-1.343-2.101-2.26-1.685-1.853.676-4.54-.484-6.167.809-1.485 1.117-1.545 5.129-4.457 6.396-.159.017-5.123-2.986-5.849-2.27-2.67 2.044-5.634 8.924-9.605 7.74-1.636-.31 1.46-2.878 1.452-4.48.293-1.792-1.693-2.384-1.618-3.193-.074-2.235 1.62-2.894 1.337-5.588.041-1.126-1.61-1.593-1.869-2.527-.083-.792.993-1.226.276-1.951-1.385-.976-5.082 1.976-6.192 2.092-3.138.65-.975-4.703-1.059-5.496-.09-2.393-4.489-.009-4.572-.8l-1.018-.535c.443-.367.852-1.05 1.227-2.051.485-1.493 5.108-3.26 3.539-2.935-.3.191-.902.575-.935.258-.183-1.743 4.407-6.871 4.39-7.03l-.291-1.25c.734.883 1.576 4.32 2.052 4.27 10.38-1.893-1.217-5.48 1.179-11.66.125-.333 2.553-.108 3.98-.258 2.277 1.844 4.33 3.07 6.148 5.122.176.141.476-.05.776-.242 1.486-1.117-.692-2.01 1.644-1.134 2.829.984-3.689 4.553 3.637 7.147 4.83 1.735 7.994-3.243 7.994-3.243 1.97.434 5.407-.408 5.449 1.51-.042 1.126-2.955 2.393-1.812 2.593 2.128.418 5.124-.057 6.15 2.078.241.775-1.694.658-1.42 1.75.91 4.07-4.197 1.243-6.408 3.078-.743.558 1.894 1.242.884 2.31-.426.525-1.602.008-1.452 1.434.033.317.65.092.826.234 1.969.434 11.522 1.352 12.415 2.22.192.3-.576 2.142.458 2.835 1.894 1.243 2.395-.092 3.096.475 4.347 3.228 8.418 5.364 12.314 7.357.843.392.375 2.044.792 2.961.176.142 7.802 2.544 9.387 2.378.968.058-1.244 1.893-1.97 2.61-1.327 1.1 5.757 2.92 5.84 3.712.575 3.944-.517 1.175-1.494 2.56-.567.7.976 1.66 1.393 2.577zm-63.532-52.76c-.197.022-.197.022-.176.219-.021-.197-.021-.197.176-.218z" stroke="#D8D9DF" fill="#ECECEC"/>
        <path d="M659.393 503.496c-.667-3.294-9.676-12.76-8.641-15.113.392-.842 2.078-.058 2.311-.883 2.79-13.11 20.921-9.889 22.782-12.007-.267.509 1.26 1.31 1.91 1.401 1.32.342 1.945-1.326 3.439-.842 1.143.2 2.594 1.81 3.921.71 1.628-1.293-1.693-2.386-1.951-3.32-.117-1.11 5.44-3.135 6.617-2.618.492.109.734.884 1.21.834 2.411.067 4.164-4.603 5.875-5.103.725 2.327-.919 3.46-.318 6.121.016.159 3.378 3.17 3.553 3.311.768 1.201-.15 4.662-.117 4.98.024 1.759 2.727 3.077 1.85 5.412-.876 2.335-1.935-.117-3.37 1.476-2.004 2.293-6.627 4.06-6.06 6.404.034.317 1.018.534.701.567-3.705 1.35-3.17.333-6.033 2.076-.601.384 1.068 1.01.976 1.66.083.792 3.378 3.17 3.57 3.47.209.458 1.068 1.009.768 1.2-1.552.484-4.147-1.326-4.606-1.118-6.459 2.602-6.701 4.87-10.365 8.139.667.25 1.16.359 1.827.609-2.987-.968-5.974-1.936-9.145-1.602-.95.1-.985 2.827-1.827 2.435-.876-.71.7-2.477.109-3.536-.85-1.994-8.81-4.521-8.986-4.663zM548.749 432.94c-.35-.284-3.71-12.427-4.703-14.245 0 0-1.71.5-2.17.708-1.377.626-.268 3.553-1.21 5.254-1.495 2.56-5.908-1.301-6.383-4.295-.758-5.688 7.377-3.019 8.205-11.917-.034-.317 2.194 1.051 2.077-.058-.066-3.678-18.557.348-23.496-.895-.985-.217.117-1.935 0-3.044-.216-2.06-.3-2.852-2.26-4.729-.017-.158-.242 2.269-1.068 2.035-2.937-.492-2.495-.86-4.155-2.928-1.085-1.167.325 1.568-1.77 1.468-.967-.058-3.178-1.268-3.979-2.786l-.192-.3c-1.886 3.402 2.27.242 1.218 2.435-.392.843-3.78 2.16-3.214 4.503.242.776 8.552 3.587 8.302 4.254-.518 1.176-6.667 2.143-7.87 5.954-.843 2.652 7.084 1.819 6.474 3.645-.108.492-1.644 4.178-1.085 4.92.383.601 1.652.468 2.052 1.227.225.617-.943 1.7-.276 1.951.317-.033 2.028-.533 2.253.084.442 2.677.165 7.672 1.325 11.075l.158-.017c3.104-.967 5.381 3.92 7.61-.8.125-.333.109-.492.234-.825.066.634.45 1.234.96 1.501 2.285.4 4.99-4.37 4.907-5.162-.058-2.076-2.286-3.444-2.644-5.329-.05-.475.075-.809.359-1.16.859.551 1.877 1.085 3.087 1.92 1.86.925 4.447-1.91 6.291-1.143 3.688 1.535 5.004 11.01 7.39 15.405l.726-.718c-.017-.158.142-.175.3-.191-.808-6.163 4.172.042 3.572-2.619-.5-1.71-.683-3.452-1.025-5.179zm-21.659-10.861c2.236-.075 3.888.392-5.757-2.92-1.318-.342-5.232.55-3.897 1.05.175.143.618-.224.793-.083 2.954.651 6.475.602 8.861 1.953z" stroke="#D8D9DF" fill="#ECECEC"/>
        <path d="M625.008 421.88c-.175-.142-.35-.283-.509-.267-.668-.25-8.813 7.655-8.186 2.943.092-.65-1.16-.358-1.652-.467-.985-.217-.217-2.06-.776-2.802-.192-.3-7.084 1.225-7.167.433-.167-1.585 2.504-6.672 2.137-7.114-1.601-3.035-4.614.325-6.35-.934-.35-.284-.7-3.611-.716-3.77.025-1.284-2.445-.384-2.17-2.335.11-.492 1.987-2.452 1.211-2.21-1.886.358-11.082 4.369-11.273 4.069-.735-.885 1.719-1.943 1.46-2.878-.116-1.109-1.652-.467-2.21-1.209-.56-.742 2.505-9.715 3.481-11.1.284-.35 4.765-1.942 4.298-3.335-1.109-2.928-1.283-9.157-3.1-14.253-.276-1.093-2.37 1.851-3.105.967-2.027-2.51-6.29-11.034-8.226-5.063-.25.667-.551.859-.885.734l.017.158c-.385 5.488-.275-1.092-2.713 6.213-.518 1.176 3.57 3.47 2.778 3.553-2.362.408-2.962-2.252-4.957-1.402-1.076.434-11.032 7.889-11.3 8.397-1.11 3.161.25 2.377 1.135 4.687.642 1.535-3.005 4.962-3.823 6.33-.284.35-.218.984-.168 1.46-.141.174-.108.491.05.475 2.562 1.493-1.353 8.473-2.113 11.917-.125.333-.668-.25-1.001-.376-1.636-.308-3.564 1.176-4.932.359-.35-.284-1.26-1.31-1.368-.818-.434 1.968 1.442 6.097 1.233 8.682-.042 1.126-1.953-.276-1.853.675.492 3.153.316 6.055.132 7.356-.092.65-.259 2.11-.91 2.018-.509-.267-.575-.9-.926-1.184-.191-.3-.525-.426-1.017-.534-.159.016.074 2.235-.785 1.684.342 1.727.525 3.47 1.025 5.18.6 2.66-4.38-3.545-3.572 2.618.476-.05 6.958 5.196 7.534 6.097.184-1.301.192-2.744 1.052-2.194.859.551 1.134 1.644 1.25 2.753.935-.259 2.587.208 5.482 1.827.668.25-1.469 1.275-1.085 1.876.943 1.343 4.414.818 4.088 2.294-.234.825-10.154-.535-2.504 3.627 4.072 2.136 2.196-5.037 3.138-3.694.926 1.184-.317 3.077.325 4.612 2.235 6.013 5.19 3.62 6.84 10.175.967 3.103-4.942 10.933-1.405 14.086 1.577 1.276 3.988 1.343 5.84.667 1.394-.466.777-3.285 2.204-3.435 1.093-.275-.159 3.06.95 2.944 1.11-.117.252-3.711 1.27-3.178 1.16.36-1.428 3.194-.268 3.553 5.006 1.877 2.47-3.944 3.497-4.853 1.47-1.276 4.373-1.1 5.316-2.802.551-.859-2.578-1.651-2.027-2.51.71-.876 1.485 1.926 2.595 1.81 1.443.008 2.77-1.092 3.271-2.427.751-2.001-1.626-4.795-.19-6.388 4.197-4.286 3.661 5.863 5.922 7.548 1.018.534 2.637-2.36 3.213-1.46.943 1.344-.952 3.145-.802 4.57.242.777 1.685.785 1.927 1.56 1.076 2.611.616 5.864 2.151 8.266 1.151 1.801 2.92 3.377 3.77 5.37.818 1.677-.2 4.187 1.2 5.321 1.386.976-.808-3.119-.165-4.628.376-1 .233 2.218.967 3.102 1.118 1.485 3.279 2.22 4.096 3.895.993 1.819.609 4.262 1.3 6.272.451 1.234 1.994 2.194 1.81 3.495-.25.667-2.01.692-1.485 1.117.734.884 3.03-.158 3.463.918 2.026 5.554-6.703 10.957-.796 15.303.7.567 1.16-2.685 1.394-3.511.059-.967-.025-1.76.034-2.727-.15-1.426 6.76-8.881 6.653-11.433-.092-2.394-5.573-7.265-7.09-9.508-.943-1.343 1.652-2.577-.442-5.721-2.477-3.745-7.776-3.829-10.253-7.574-4.154-5.971 2.52-3.469 2.112-5.829-.033-.317-1.342-5.146-1.2-5.32 1.419-1.752 3.538.108 2.854-3.345-.425-2.518-1.911 1.643-2.12 1.184-.542-.583-.608-1.217-.992-1.818-.542-.584-1.068-1.009-1.61-1.593-3.287-3.82-10.487-9.792-13.122-13.52-.751-1.042 3.57.426 3.755-.875.058-.967-1.485-1.927-1.268-2.91.476-3.095 1.453-4.479 1.896-7.89.125-.333 3.696.092 7.893-1.15 1.711-.5.577-2.143.794-3.127.267-.509 3.296-.667 4.18-1.4.443-.368-1.576-1.277-1.15-1.802 1.385-2.068 3.912 2.152 6.041-3.52.485-1.492 5.108-3.26 3.539-2.934-.3.191-.902.575-.935.258-.183-1.743 4.407-6.871 4.39-7.03l-.291-1.25zm-79.832 19.766c.609 1.217 1.501 2.085 2.47 2.143.967.059-1.678-2.227-1.744-2.86l-.726.717zm11.229 9.233c-.275-1.093-.25-2.377-.366-3.486-2.504.583.741 5.529.366 3.486zm-2.67-4.045l.021.197-.02-.197zM444.344 369.897c1.952 3.32 3.498-4.853 8.637-1.708.684.408.025 1.76.725 2.326 4.605 4.162 8.093 3.796 12.014 7.55.893.867 2.278-1.202 3.405-1.16 2.728.034 1.042 2.294 1.918 3.003 8.06 6.522 5.824.509 8.119 2.51.859.551-1.628 1.293-.543 2.461 3.17 2.71 5.54-2.184 7.517 2.895.017.158.35.283.51.266 2.202-.391-.676-1.851 1.176-2.526 1.093-.275 1.343 2.101 2.47 2.143 1.301.184-.058-2.076 1.877-1.96 1.285.026 3.262 2.06 4.406 2.261.317-.033 8.653-1.55 8.402-.883-1.278 7.664 1 6.463.841 9.524-.042 1.126-.143 3.22-1.428 3.194-3.52.05-5.515.9-8.285-1.052-.717-.725-1.594 1.61-2.562 1.551-5.332-.4-8.343-3.128-12.224-1.92-3.88 1.21-6.698-7.305-10.754-6.238-2.345.567-4.406.783-6.542 1.809-1.36.784-4.947-2.845-5.456-3.112-1.352-.659-5.666-.526-6.984-.868-3.655-1.218-3.805-2.644-5.924-4.504-4.188-3.244-6.157-.634-9.553-3.962-.892-.867 1.227-2.051 1.92-3.085 1.51-2.402.06-7.056 4.541-8.648l1.777.133z" stroke="#D8D9DF" fill="#ECECEC"/>
        <path d="M444.107 548.752l-.218-.177.218.177zM332.548 418.014c1.027-.908 3.004 1.127 4.047.376.901-.575.1-2.093.318-3.077.125-.334.667.25.7.567.176.142 5.841.668 7.51 1.293 1.51.643 11.04-.199 12.433-.666.776-.241-2.543-7.422-2.868-8.99-1.31-4.829-4.831-1.735-4.597-5.605.059-.967 2.346-3.61 1.261-4.778-1.418-1.293-3.604-.743-5.373-2.32-1.051-.85.368-2.601.902-3.619.96-1.542 2.988-2.076 4.298-3.335 5.4-5.053 3.98-.258 10.305-1.083 1.11-.117 4.522.326 5.708-.6 1.201-.767 3.213-4.503 3.872-5.854 1.086-1.876 4.924-1.96 5.808-2.693 5.467-4.42.92-3.461 4.324-7.664.284-.35 3.138-.65 3.438-.842 2.77-1.092.993-1.226.543-2.46-.792-2.96 5.616-2.993 7.094-5.712.284-.35-.825-6.322-.524-6.513 1.544-2.085 6.275-1.3 6.976-3.778.718-2.318-4.956-1.401-5.356-2.16-.751-1.043.292-1.793.334-2.919.142-.175-.743.559-.901.575-2.587-.208-2.12-1.86-4.238-3.72-1.594-1.434 2.521-6.512 2.663-6.688.359-1.159-2.461-.542-2.829-.984-.717-.726.076-3.853.419-5.17.902-3.62 11.464 2.319 14.476 2.002 1.744-.183 3.48-1.967 5.4-2.009 1.11-.117 2.928 1.935 3.445.76.25-.668.168-1.46.418-2.127 1.019-2.51 4.757-3.544 6.877-4.728l1.11-.117c1.226.993 1.25 5.796 2.242 7.615.576.9 2.528 1.176 3.863 1.676l.3 2.852c-.459.209-.918.417-.885.734.359 1.885 1.41 5.78 1.41 5.78 2.043 2.669 3.437 2.202 4.754 5.588.225.617-.834 1.21-1.419 1.751-2.92 2.71-3.921-.71-6.124-.317-.46.208-1.636-.31-1.586.166.326 1.568 2.686 4.204 2.786 5.154.108 2.552-.443 3.411-.051 5.613.1.95 1.627-1.292 2.47-.9 2.002.75 1.743 2.86 4.13 4.212 4.438 2.577 7.275 2.119 11.897 6.439.175.142-.826-.234-1.143-.2-5.099 1.817-3.648 6.47-5.159 8.873-.693 1.034-2.812 2.218-1.92 3.085 3.396 3.328 5.365.718 9.553 3.962 2.12 1.86 2.27 3.286 5.924 4.504 1.318.342 5.632.21 6.984.868.509.267 4.096 3.896 5.456 3.112 2.136-1.026 4.197-1.242 6.542-1.81 4.056-1.066 6.874 7.449 10.754 6.24 3.88-1.209 6.892 1.518 12.224 1.92.968.058 1.845-2.277 2.562-1.552 1.894 1.243 3.354 1.41 5.415 1.193.793-.083.951-.1.968.059l.793-.083.792-.084c1.602-.008 1.686-2.26 1.887-3.402l-.1-.95c-.225-.618-.242-.777-.259-.935-.383-.6-.575-.9-.625-1.376-.242-.776-.242-.776-.259-.934-.166-1.585.001-3.044.26-5.154-1.752-1.418 4.19-2.843 5.24-1.993.86.55-.2 4.187.267 5.58l1 .375c-.108.492-.25.667-.233.826-.31 1.634-.176 2.902 1.318 3.386 1.143.2 1.635.308 2.11.258l1.269-.133c.793-.083 1.569-.325 2.361-.408.3-.192.618-.225.935-.259.459-.208.618-.225.776-.242 1.252-.291 2.328-.725 3.263-.983.617-.225 1.093-.275 1.268-.134 2.637.684 12.183.002 14.11-1.483 1.043-.75-.291-1.25-.675-1.851-.768-1.201 2.637-2.36-.492-3.153-1.318-.342-4.372 1.1-3.279-2.218.952-.1 1.778.133 2.712-.125 1.11-.117 2.362-.409 3.422-1 3.212-1.46 3.255-5.63 6.05-8.006 1.912-1.643 2.379-.25 4.198-1.242 3.18-1.776 1.686-2.26 3.864-4.412.868-.892 1.561-1.926 2.67-2.042 1.57-.326 4.74 2.385 7.051 1.501 2.137-1.025.018-2.885 4.482-4.636 1.093-.275 1.185 2.118 2.261 1.685.3-.192.901-.576.935-.259-.009 1.443-1.628 1.293-1.62 2.894-.042 1.126 2.053-1.818 2.72-1.567.86.55 1.961 1.876 1.394 2.577-.426.525-2.604 2.676-2.38 3.294.018.158 6.943-1.05 8.12-.533.509.267.86.55 1.176.517-.368 5.646-.258-.934-2.696 6.371-.518 1.176 3.57 3.47 2.778 3.553-2.362.408-2.962-2.252-4.957-1.402-1.076.434-11.032 7.889-11.3 8.397-1.11 3.161.25 2.377 1.135 4.687.642 1.535-3.005 4.962-3.823 6.33-.284.35-.218.984-.168 1.46 2.612 1.968-1.303 8.948-2.063 12.392-.125.333-.668-.25-1.001-.376-1.636-.308-3.564 1.176-4.932.359-.35-.284-1.26-1.31-1.368-.818-.434 1.968 1.442 6.097 1.233 8.682-.042 1.126-1.953-.276-1.853.675.492 3.153.316 6.055.132 7.356-.092.65-.259 2.11-.91 2.018-.509-.267-.575-.9-.926-1.184-.191-.3-.525-.426-1.017-.534-.159.016.074 2.235-.785 1.684-.35-.283-3.71-12.426-4.703-14.244 0 0-1.71.5-2.17.708-1.377.626-.268 3.553-1.21 5.254-1.495 2.56-5.908-1.301-6.383-4.295-.758-5.688 7.377-3.019 8.205-11.917-.034-.317 2.194 1.051 2.077-.058-.225-.617-.241-.776-.241-.776l-.685-.408c-.65-.092-.667-.25-.826-.234-1.143-.2-1.618-.15-2.27-.242l-.792.083c-.81-.075-1.76.025-2.57-.05l-1.11.116c-1.902.2-3.98.259-5.882.459-2.22.233-4.44.466-6.058.316-1.268.133-2.236.075-3.062-.159-.985-.217.117-1.935 0-3.044-.216-2.06-.3-2.852-2.26-4.729-.017-.158-.242 2.269-1.068 2.035-2.937-.492-2.495-.86-4.155-2.928-1.085-1.167.325 1.568-1.77 1.468-.967-.058-3.178-1.268-3.979-2.786-2.078 3.102 2.078-.058 1.026 2.135-.392.843-3.78 2.16-3.214 4.503.242.776 8.552 3.587 8.302 4.254-.518 1.176-6.667 2.143-7.87 5.954-.843 2.652 7.084 1.819 6.474 3.645-.108.492-1.644 4.178-1.085 4.92.383.601 1.652.468 2.052 1.227.225.617-.943 1.7-.276 1.951.317-.033 2.028-.533 2.253.084.442 2.677.165 7.672 1.325 11.075-.443.367 1.484 1.927.9 2.469-.584.542-1.418-1.293-2.036-1.068-.792.083-.576 2.143-1.243 1.893-4.948-2.844 6.035-11.208-7.917-6.698-1.235.45 2.72 1.477 2.519 2.62-.293 4.836-8.687 4.277-10.181 6.837-1.478 2.718 3.202 9.115-4.142 12.45-.918.417-1.768-1.576-2.528-1.176-.584.542 1.26 1.31 1.168 1.96-.092.65-.918.417-1.377.626-1.71.5-3.23 1.3-4.798 1.625.559.743-1.535.642-2.136 1.026-6.576 4.536-4.249 6.855-10.633 11.691-2.529 1.868-15.163 9.764-16.265 11.482-.852 1.051.633 2.978-.043 4.17-1.761 3.069-7.134.75-9.095 1.917-1.661.976-1.17 4.128-2.83 5.104-1.961 1.167-5.015-.434-6.8.875-5.392 3.61-.636 6.155-.587 9.674-.025 1.284-1.702 2.101-1.586 3.21.409 2.36 2.845 4.187 2.92 6.422.1.951-2.962-2.252-2.545-1.334.291 1.25 2.069 1.384 2.82 2.427 2.026 2.51-4.367 11.833-4.993 13.501-1.32 2.702 2.325 11.45.856 12.727-2.178 2.151-11.848-2.92-9.196 7.054.692 2.01 4.906.926 5.581 2.778.676 1.851-5.49-3.428-10.196.591-3.84 3.127-1.955 8.857-8.697 8.764-10.58-.01-10.469-12.677-13.037-18.816-2.92-6.421-11.162-14.687-13.788-22.902-.693-2.01-.283-5.737-.733-6.972-.309-1.41-7.598-15.863-9.225-17.614-3.729-3.453-2.994-8.657-3.486-8.765-.509-.267.2-1.143.15-1.618-.25-2.377-.324-4.612-.89-6.956-.551-2.185-3.57-6.513-2.76-9.482.342-1.318 2.028-3.578 1.644-4.178.034-2.727-2.035-4.112-2.886-6.105-1.393-2.577 3.147-5.137 3.164-8.023-.216-2.06-3.729-3.453-3.152-5.596.342-1.318 11.09-2.768 3.547-7.422-1.893-1.243-4.639-1.435-6.792-.568-3.087 1.126-.86 8.582-.936 9.39-.2 1.143-2.153.868-3.088 1.126-1.076.434-7.552 2.877-9.73 1.984-3.829-1.36-13.873-11.518-14.907-15.255-.242-.775 1.669.626 2.62.526.951-.1 1.644-1.134 2.579-1.392 1.885-.359 4.08.692 5.899-.3 1.377-.625 2.162-2.31 2.963-3.836-.284.35-.568.7-.726.717-1.71.5-3.488.367-5.249.392-4.981-.118-6.108-.16-9.853-3.771-2.695-2.76-.809-3.12-3.503-5.88.267-.509.375-1 .96-1.543zM744.408 206.67c1.861-5.162 3.264-7.072 5.46-12.109 1.677-3.86-.708-8.256.226-8.514 3.105-.968 9.596-.208 10.298-2.685.968-2.985-4.439-2.577-3.813-4.245.626-1.668 3.922-2.335 5.09-3.419 1.311-1.259-.858-3.594-.023-4.803 1.844-2.277 1.101 1.326 2.12-1.184.626-1.668-3.77-5.372-.375-5.088 2.094.1 3.938.868 5.64 1.81l1.193.676c-.96 1.543-2.278 1.2-2.163 8.398-.05 2.569 3.905 3.595 4.313 5.955.584 2.502-7.604 14.577-7.513 16.97.174 6.23 6.44 3.329 10.78 4.955-.36 1.16 1.309 1.785.015 3.203-1.277 1.576-4.239 2.368-5.708 3.644-2.053 1.818-.518 4.22-.685 5.679l-.317.033c-1.177-.517-1.67 2.419-2.921 2.71-1.711.5-3.43-.6-4.998-.275-2.187.55-4.081 2.351-6.284 2.743-.793.083 1.152-1.243 1.56-1.927.927-1.86 2.98-3.677 2.288-5.687-.45-1.234-2.645.759-4.105.592-2.428-.226.368-5.646-1.701-7.03-1.402-1.135-3.438.841-5.357.883-.968-.059-2.02-.91-2.845-1.143l-.175-.142z" stroke="#D8D9DF" fill="#ECECEC"/>
        <path d="M769.263 215.913c.167-1.46-1.368-3.861.685-5.68 1.469-1.275 4.431-2.067 5.708-3.643 1.294-1.418-.375-2.043-.016-3.203 9.203 3.68 14.426 7.616 19.606 15.723 1.743 2.86 5.64 4.854 2.409 9.199-6.602 8.864-.057-8.165-8.237 5.511-5.033 8.54 5.534-6.83.124 5.755-.25.667-6.477 8.53-8.411 2.326-.259-.934 2.236-.075 2.787-.934.25-.667-2.011.692-2.236.075-.242-.776 1.819-.993 1.577-1.768-.242-.776-.976 1.384-1.786 1.309-.984-.217-2.036-1.068-2.47-2.144-.691-2.01.32-9.165-.206-9.59-.842-.392-1.928 1.484-2.787.934-5.873-4.03.645-10.642-6.747-13.87zM654.854 153.762c-.159.017-.176-.141-.334-.125-3.888-.392-3.046 3.044-6.551 3.252-3.012.317-4.305-1.31-7.41-.343-3.58 1.017-3.222 5.946-4.257 8.298-.375 1-10.84 8.188-11.884 8.939-3.196 1.617-13.827 4.177-17.506 1.2-.7-.568.1-2.094-.725-2.328-1.477-.325-2.787.934-4.373 1.1-1.268.134-2.403-1.51-3.704-1.693-6.667-.901-14.337 6.954-17.558 6.812-4.188-.2-8.077-.593-9.745-4.263-.608-1.217-.207-3.502-1.668-3.67-6.933-.392-13.342-.36-20.108-2.211-.334-.125-4.05 8.756-4.133 11.008.05 3.52 6.149 2.077 3.37 7.656-.11.492-3.49 3.41-4.107 3.636-1.552.483-1.768-1.577-3.78-.885-2.645.759-9.57 1.967-12.7 1.175-2.127-.417-1.901-2.844-2.685-4.204-.384-.6-6.484.842-7.627.642-.634.066-.242-.776-.275-1.093-.083-.792-.326 1.476-3.73-.409-.35-.283-5.942 4.47-9.388 6.754-3.288 2.268-9.99 7.138-10.24 7.805-.109.492-1.001-.375-1.477-.325-2.27-.242-5.959 4.31-5 5.812 3.312 5.58 11.773 6.773 17.13 8.934.667.25.9 2.468 1.092 2.769 1.343 2.101 3.153 2.552 4.162 4.528 2.294 5.046-2.605 8.765.607 13.394.208.459 16.604-.624 17.764-.265 5.415 1.193 7.767 5.271 13.375 3.72.776-.241-.234.826 1.218 2.436 1.243 1.151 5.838 9.8 7.741 9.6 5.123-.058 16.505-1.575 21.512-2.742 3.279-.825 5.332-2.643 8.82-3.01 7.927-.833 14.117 3.163 22.362 2.296 1.585-.166 2.812-2.218 4.43-2.068.652.092-.15 1.618.518 1.869.842.392 1.852-.676 2.82-.617.317-.034.542.584.684.408 4.282-3.493 8.814-10.698 13.93-12.358 6.683-1.984 14.277-2.942 18.592-9.163.818-1.368.852-4.095 1.812-5.637.267-.51 5.575-4.912 4.824-5.954-1.118-1.485-11.297-6.823-4.67-10.884 3.48-1.968 7.667 1.276 11.414-1.2 2.262-1.36 2.655-5.245 3.231-7.389.718-2.318 4.94-1.8 6.676-3.585 3.489-3.41.419-5.17 1.938-9.015 1.645-4.178 2.987.968 3.706-4.395.15-1.618 14.128-7.412 13.886-8.188-.558-3.786-16.453-7.082-17.739-4.063-.517 1.176-.384 2.443-.885 3.778-.359 1.159-2.653-.843-3.73-.41-1.076.434-8.67 7.48-8.653 1.551.075-.809 1.169-1.084 1.26-1.735.076-3.852-1.25-8.84-1.557-13.293l-.592-1.06-.083-.792zM511.485 391.037c2.945-.95 3.223-8.99 8.296-9.523 1.11-.117 3.28-.825 3.396.284.208.458-.343 1.317-.009 1.443 3.446.759 5.474.225 7.894-1.15 1.677-.818 2.987.967 3.153 2.552l.159-.017-.159.017c-1.093 3.319 1.96 1.876 3.28 2.218 3.128.793-.277 1.952.49 3.153.385.6 1.72 1.1.676 1.851-1.927 1.485-11.473 2.167-14.11 1.483-.175-.141-.65-.091-1.268.134-.935.258-2.011.692-3.263.983l-.317.034c-.159.016-.159.016-.3.192l-.159.016c-.317.034-.634.067-.935.259-.792.083-1.568.325-2.361.408l-.634.067-.317.033-.159.017-.158.016c-.476.05-.968-.058-1.444-.008-.017-.159-.017-.159-.175-.142l-.159.017-.158.016s-.017-.158-.175-.141c-1.494-.484-1.627-1.752-1.443-3.053l-.017-.158c.159-.017.142-.175.142-.175-.017-.159.125-.334.109-.492.141-.176.141-.176.125-.334zM331.589 419.557c-1.452-1.61-4.381-.5-6.116-1.76-.367-.442.692-1.034.642-1.51-.391-2.201-.624-4.42-1.792-6.38-.976-1.66-3.12-2.235-4.255-3.878-1.1-1.326-.858-3.594-2.26-4.729-.7-.567-2.87.142-2.453 1.06l.016.158c-.81-.076-1.46-.167-2.253-.084-3.187.175-6.508-.918-9.679-.585-.475.05-.5 1.334-.834 1.21-1.669-.626-2.553-2.936-4.347-3.229-1.952-.275-3.722 1.193-5.783 1.41-2.695.283-5.18-2.02-7.926-2.212-2.094-.1-5.9.3-8.82-.034l.71-.875c3.097-5.613 1.737-7.873 7.553-8.965.634-.066.326-1.476.96-1.543 2.345-.566 6.04 2.57 7.109.535l1.227-2.051c2.638-5.404-3.454-2.361-3.796-4.087-.2-1.902 2.663-6.688 1.813-8.682-.017-.158-5.281-2.97-5.79-3.236-3.504-2.836-4.73-9.917-6.89-13.695l1.002.376c.158-.017 10.896 6.064 11.23 6.189 6.357 2.536 24.347 2.888 31.398 1.346.476-.05 1.076-.434 1.202-.767 1.196-14.545 4.24-8.456 13.51-10.232.618-.225-2.227-1.368-1.5-2.085 1.151-1.242 3.42-1 4.923-1.96 2.403-1.533 5.28 6.014 9.629.11-.017-.158-.116-4.153-.133-4.311.042-1.126 2.204-3.436 2.546-4.754.534-1.017 5.566-.424 7.001-2.017.585-.542-3.394-6.372-2.602-6.455 2.729.033 7.726 3.353 9.771-.066.41-.684-.7-3.611-.7-3.611 3.246-1.142 4.958-4.687 5.993-7.038.643-1.51-3.47-5.563-2.268-6.33 4.806-3.069 7.669-4.812 14.695-5.07 2.394-.091 4.83 1.736 7.159 1.01 1.093-.275 2.07-1.659 3.37-1.475l.46-.209c2.928 1.935 7.476.977 9.887 4.088 1.293 1.626-.995 10.357 4.68 6.397.458-.209-.218.984.15 1.426 1.626 1.751 5.039 2.194 7.008 2.627l2.378-.25.017.159c-2.12 1.184-5.858 2.218-6.877 4.728-.25.667-.167 1.46-.418 2.126-.517 1.176-2.336-.876-3.446-.759-1.919.042-3.655 1.826-5.399 2.01-3.012.316-13.574-5.623-14.476-2.004-.343 1.318-1.136 4.445-.419 5.171.368.442 3.188-.175 2.829.984-.142.176-4.257 5.254-2.663 6.689 2.119 1.86 1.651 3.51 4.238 3.72.158-.017 1.043-.751.901-.576-.042 1.126-1.085 1.876-.334 2.919.4.759 6.074-.158 5.356 2.16-.701 2.477-5.432 1.693-6.976 3.778-.3.191.808 6.163.524 6.513-1.478 2.719-7.886 2.751-7.094 5.712.45 1.234 2.228 1.368-.543 2.46-.3.192-3.154.492-3.438.842-3.405 4.203 1.143 3.244-4.324 7.664-.884.734-4.722.817-5.808 2.693-.66 1.35-2.67 5.087-3.872 5.854-1.186.926-4.598.483-5.708.6-6.325.825-4.905-3.97-10.305 1.083-1.31 1.26-3.338 1.793-4.298 3.335-.534 1.018-1.953 2.769-.902 3.62 1.769 1.576 3.955 1.026 5.373 2.319 1.085 1.167-1.202 3.81-1.26 4.778-.235 3.87 3.287.776 4.596 5.605.308 1.41 3.019 7.373 3.01 8.815.016.159.016.159-.142.175-.776.242-5.057.692-8.403.884-1.919.041-3.52.05-4.03-.218-1.669-.625-7.334-1.151-7.51-1.293-.033-.317-.575-.9-.7-.567-.217.984.583 2.502-.318 3.077-1.043.75-3.02-1.284-4.047-.376-.584.542-.692 1.034-.96 1.543zm-16.56-15.722c.65.092 2.437-1.217 1.627-1.292-.334-.125-1.335-.5-1.285-.025.259.934-1.343.942-.342 1.317zM831.845 128.11c.585-.541 1.119-1.559 1.945-1.325 2.478.7 3.02 4.329 5.214 5.38 8.268 3.937-.566-5.388 10.062 4.229 4.271 4.037.433 4.12 2.726 9.165.434 1.076 2.687 1.16 2.804 2.269.008 1.601-2.162 2.31-2.488 3.786-.234.826 5.34 5.046 6.79 6.656 3.08 3.361-2.97 2.234 2.978 8.498 1.418 1.293 4.239.676 5.373 2.32.4.758.824 9.365-.929 10.99-1.91 1.644-2.26-7.772-4.17-6.13-1.486 1.118 2.127 3.462 1.517 5.288-.342 1.318-3.312.509-3.655 1.826-.434 1.968 3.178 4.312 1.918 6.047-.818 1.367-2.369-4.237-3.696-3.136-1.469 1.275 1.1 4.37.174 6.23-.801 1.525-3.054 1.442-4.381 2.543-1.185.925-1.57 3.369-3.013 3.36-1.585.167-2.444-3.428-3.98-2.786-1.393.467-.776 3.286.133 4.312 1.101 1.326 4.314-.133 4.956 1.401.484 1.552-2.337 2.169-3.155 3.536-.55.86 1.701 7.03.674 7.94-7.319 8.138-8.801-5.964-9.76-7.465-.543-.584-.485 1.492-1.228 2.051-3.129 2.251-6.083 1.6-6.81 5.362-.634 3.11-3.672 7.755-6.568 9.181-.776.242-2.053-1.226-2.286-.4-.293 1.793 1.86 3.97 1.091 5.812-.534 1.018-2.386-1.35-3.462-.917-1.677.817-2.412 2.977-3.74 4.077.385.6.693 2.01 1.327 1.944 1.586-.167 2.412-2.977 3.889-2.652 1.318.342 0 3.044 1.017 3.578 1.035.692 2.262-1.36 3.288-2.268-.175-.142-.192-.3-.367-.442-.817-1.677 2.062-3.26 2.338-5.212.309-1.635-1.493-3.528-.517-4.912.835-1.21 3.68-.067 4.673-1.293 1.436-1.592.168-4.503 1.62-5.937 1.169-1.084 3.063.159 4.681.309.843.392 2.111.259 2.37 1.193 3.018 13.46-.41 3.727-4.883 6.921-1.36.784-1.636 2.735-1.645 4.178-.133 1.776 2.144 3.62 1.343 5.146-.676 1.192-5.182 1.025-7.96.516.274 1.093.366 3.486.148 7.514 3.087 1.919 4.745 13.119.664 15.47-1.978 1.01-1.684-6.872-3.47-5.563-1.519.8 3.604 3.787 2.102 4.746-2.262 1.359-7.075-3.262-7.484-5.622-.866-8.24 3.057-10.574-10.203-7.098-.617.225 1.936.117 2.186-.55.877-2.335-1.243-1.151.126-3.378.41-.683 1.52-.8 1.945-1.326.818-1.367.76-3.444 1.753-4.67l-.317.034c-1.427.15-2.186-2.494-2.019-3.953.201-1.143 2.103-1.343 3.005-1.918 1.026-.91.826-2.81 1.327-4.145 1.428-3.194.795-9.215 3.224-12.034.567-.7 1.936.117 2.536-.266 3.873-2.81 5.35-8.573 9.623-10.624.902-.576 1.502 2.085 2.453 1.985 1.11-.117 2.12-1.184 2.32-2.327.15-1.618-1.125-3.085-1.467-4.812-.05-.475.025-1.284-.025-1.76.067-2.41.769-4.886.043-7.213-.358-1.885-3.17-2.711-3.211-4.63.009-1.442 1.803-4.194 3.013-3.36 1.368.818-1.728 3.386-.944 4.745 3.586 6.673 8.054-7.254 8.263-9.84.427-6.613-.79-15.136-4.468-21.158-.61-1.217-1.377-2.418-2.553-2.936-.843-.392-1.961 1.168-2.662.6-.734-.883.543-2.46-.05-3.519-.75-1.042-2.794-.667-3.403-1.885-.434-1.076 1.21-2.21.935-3.302-.308-1.41-2.453-1.985-2.444-3.428.109-.492.075-.81.2-1.143-.759.4-1.835.834-3.087 1.126-1.694.659-1.601-3.036-2.986-4.012-1.594-1.434-4.606-1.118-5.599-2.936-1.81-3.494 3.715-8.881 3.416-11.734-.15-1.426-2.545-1.334-3.154-2.552-.575-.9.26-2.11-.158-3.027-2.71-5.963-8.893-5.313-9.084-11.702 5.24 1.052 12.941 2.645 18.04.828 2.17-.709 4.147-1.718 5.741-3.327.426-.525-.299-5.896-.299-5.896 2.42 1.668 2.118 7.948 7 7.114 1.268-.133 1.802-4.195 2.236-3.119 2.193 7.14-3.631 6.63-5.3 12.092-.594 1.985.115 4.154.649 6.18.483 1.551 2.169 2.335 2.494 3.903.225.618-9.12.158-11.774 2.36-1.47 1.275-.519 4.22-1.97 5.653-1.01 1.068-3.413-.442-4.265.609-2.729 3.01 7.125 3.737 10.337 5.322.126-.334.268-.51.41-.684zM248.095 236.726c16.022-6.17 13.567.977 18.597 10.702.592 1.06 2.761.35 3.763.726-.518 1.176 2.336.876 3.512 1.393 1.51.642 3.12 2.235 4.54.484.992-1.226-1.018-3.578.15-4.662 3.047-3.043 3.68-.066 6.784-1.033 1.093-.275.385-2.444 2.179-2.152 1.969.434 1.217 2.436 2.36 2.636 1.936.117-1.634-3.353-1.492-3.528.342-1.318 2.478.7 2.92.334.125-.334.342-1.318.534-1.017 1.151 1.801 1.451 4.653 3.437 5.246 1.669.625 4.205.359 4.597 2.56.242.776-1.803 1.151-1.419 1.752 3.379 3.169.275 1.092.392 2.201.05.476.417.918.308 1.41.017.158-1.677.817-.96 1.542 3.954 4.07 9.145 1.603 11.622 5.347 1.519 2.244.09 8.482 1.4 10.267 5.923 7.548 12.013 13.636 19.212 19.608 1.419 1.293 6.35.935 7.3 3.879.05.475-2.17 3.752-2.036 5.02-1.67-.626-3.53-1.551-5.248-2.652-.701-.568-1.353 2.385-2.32 2.326-1.11.117-2.303-.559-3.43-.6-4.314.132-2.838 6.546-6.226 7.863-3.388 1.317-6.542 1.81-10.906 1.467-1.143-.2.283 2.693-.777 3.285-1.961 1.168-4.556 2.402-6.717 1.668-1.16-.359-.634-2.978-1.952-3.32-.985-.217-3.955-1.026-4.88-2.21-.176-.142-.21-.459-.243-.776.126-.333 1.67-8.506 1.67-8.506-2.001-.75-4.188-.2-5.923-1.46-2.77-1.952-4.996-9.408-7.925-11.343-1.526-.8-4.013-.059-5.114-1.385-.734-.884-5.156-3.303-5.431-4.395-.034-.317.968-2.986-.459-2.836-4.422.625-8.035-1.719-12.857-1.853-6.425-.125-6.16 5.454-13.01 2.81 1.187-7.014 7.897-13.326 1.557-18.748-.526-.425-1.069 2.035-1.135 1.401.217-.984.225-2.427 1.302-2.86 1.251-.292 2.436 1.826 3.67 1.376.935-.258-1.718-1.101-1.66-2.068.06-.968 2.596-1.234 2.02-2.135-3.761-6.814-8.654 7.638-4.17-6.13 3.765-11.45 6.775 3.453 11.906 1.952.793-.083-.817-1.676-.216-2.06 1.043-.75 3.796 1.043 3.822-.24.275-1.952-2.444-3.429-3.12-5.28-.225-.617.342-1.318.276-1.952-.167-1.584.268-3.552-.8-4.562-3.78-3.928-7.778 5.304-9.404.508zM392.554 287.388c-.885.733-3.146-.951-2.337 2.168.258.934 2.31 2.16 1.393 2.577-5.95 2.868 6.174 3.837 7.066 4.704.35.284-.143 6.263-.218 7.072-.343 1.318.867 2.152.174 3.186-2.194-1.051-3.863-1.677-4.338-1.627-1.41.309-3.814 1.843-5.625 1.392-1.476-.325 7.477-2.067-2.31-2.16-2.746-.192-5.9 3.344-8.938 4.945l-2.946.95c-.317.034-.65-.092-.968-.058-4.113-1.01.62-9.357.629-10.8-.15-1.426-2.028.533-2.445-.384-.8-1.518 1.887-6.446-3.88-4.88-3.12.81-3.68 6.155-4.123 6.522-1.97 2.61-3.97-4.228-6.442 2.76-.108.492-1.151 1.242-1.677.817-6.099-4.646-4.373 1.1-9.245.491-.985-.217-1.135-1.643-1.552-2.56 1.294-1.418 5.85-6.863 6.018-8.323.059-.967-1.802-1.893-1.793-3.336-.15-1.426 1.527-2.243 1.302-2.86-.417-.918-6.216-2.711-5.273-4.412 2.83-5.104 8.144 1.226 9.605-1.65 1.319-2.703.943-1.702 2.07-1.66.492.108-.134-1.268-.359-1.885-.208-.459 1.92-.041 1.552-.483-.86-.55-1.869.516-2.603-.368-.159.017-.175-.141-.033-.316 1.168-1.085 5.673 2.127 5.014.434-.241-.776-.383-3.645 1.261-4.779 1.327-1.1 1.327 1.943 2.562 1.493.142-.175.267-.508.425-.525 1.077-.434 2.203-.392 3.28-.825.459-.209 1.419-1.752 1.594-1.61 5.298 3.128-2.855 3.344.132 7.356.192.3.509.267.826.233.65.092 1.268-.133 1.902-.2.15 1.427-2.22.234-2.612 1.076-1.143 2.844-.525-.425-4.972-1.56-1.97-.434-5.541 2.184-5.425 3.294.358 4.928 7.126.692 9.737 2.66 2.803 2.27 1.21.835 5.983.494 1.11-.117.242.775.258.934-.092.65 1.16.358 1.652.467.843.392-.834 1.209-.15 1.618.684.408 2.345-.567 2.345-.567.617-.225.483 1.551 1.134 1.643.65.092 8.511-1.375 10.589-1.433l1.76-.025z" stroke="#D8D9DF" fill="#ECECEC"/>
        <path d="M374.21 260.799c.71-.876 1.228-2.052 2.254-2.96.601-.384 1.202-.768 1.995-.85 5.056-.693 9.678 3.628 13.825 4.954.492.109-.259-.934-.325-1.568.025-1.284.668-2.793 1.519-3.844 1.419-1.751 3.33-.35 4.69-1.134.142-.175-.4-.759-.226-.617 2.228 1.368 6.5 5.405 9.795 4.738 7.227-1.4 20.469-1.991 25.716 3.705.718.726 1.685.785 2.687 1.16.984.217 2.127.417 2.878 1.46l-.184 1.3c-2.136 1.026-9.88 3.602-10.94 4.194-1.519.8-2.379 3.294-3.755 3.92-2.93 1.109-7-1.027-9.28.174-1.059.592-2.537 6.354-4.222 5.57-1.002-.375-3.263.984-4.648.008-.159.017.743-3.602-.617-2.819-3.814 1.843-8.478 1.692-11.716 4.436-2.812 2.218-.643 1.51-.71 3.92a.876.876 0 0 1-.392.842l-1.761.025c-2.078.058-9.938 1.525-10.589 1.433-.65-.092-.517-1.868-1.134-1.643 0 0-1.661.975-2.345.567-.684-.409.993-1.226.15-1.618-.492-.109-1.744.183-1.652-.467-.016-.159.852-1.051-.258-.934-4.773.341-3.18 1.776-5.983-.493-2.611-1.969-9.379 2.267-9.737-2.661-.116-1.11 3.455-3.728 5.425-3.294 4.447 1.135 3.829 4.404 4.972 1.56.393-.842 2.762.35 2.612-1.076a6.041 6.041 0 0 1 2.378-.25c1.936.117 8.119 2.512 7.828-1.783l.475-.05c1.035.692 1.418 1.292 2.478.7.885-.733 2.804-.775 3.004-1.917.06-.968-6.149-2.078-6.641-2.186-.334-.125-2.435-4.87-2.961-5.296-.334-.125-.25.667-.217.984-.368 2.602-1.285-.025-1.853.675-.425.526.25 2.377-.434 1.968-1.719-1.1-5.056-2.352-8.001-4.445-.7-.568 1.327-1.101 2.086-1.501 1.52-.8 9.197-7.055 4.198-4.287l-.383-.6zm3.484 20.941c.76-.4-.075.81-.25.667-.985-.217-.209-.458.25-.667zm-.273 27.905c-.901.575-1.994.85-2.946.95l2.946-.95z" stroke="#D8D9DF" fill="#ECECEC"/>
        <path d="M335.795 299.441c-.292-1.25 2.087-4.545 2.037-5.02-.951-2.944-5.882-2.586-7.3-3.879-7.2-5.972-13.29-12.06-19.213-19.608-1.31-1.785.119-8.023-1.4-10.267-2.477-3.744-7.668-1.276-11.622-5.347-.717-.725.977-1.384.96-1.542.109-.492-.258-.934-.308-1.41-.117-1.109 2.987.968-.392-2.201-.384-.601 1.66-.976 1.419-1.752-.392-2.201-2.928-1.935-4.597-2.56-1.986-.593-2.286-3.445-3.437-5.246-.192-.3-.409.683-.534 1.017-.442.367-2.578-1.652-2.92-.334-.142.175 3.428 3.645 1.492 3.528-1.143-.2-.391-2.202-2.36-2.636-1.794-.292-1.086 1.877-2.179 2.152-3.104.967-3.737-2.01-6.784 1.033-1.168 1.084.842 3.436-.15 4.662-1.42 1.751-3.03.158-4.54-.484-1.176-.517-4.03-.217-3.512-1.393 1.452-4.478 8.483-29.088 11.154-31.131.885-.734 2.395-.092 3.68-.066 2.728.033 10.906-1.467 13.767-.166-3.246 4.186-7.645 12.659-6.27 15.078.785 1.36 3.004 1.126 4.34 1.626 1.351.66 3.003 1.127 4.07 2.136.51.267-.166 1.46.343 1.726 3.946 2.469 7.318-2.05 10.33-5.411 1.302 3.227 2.177 6.98 4.421 8.507 1.051.85 2.745.192 4.03.217 4.206.359 8.119 2.51 12.149 2.728 1.285.025 2.562-1.55 3.58-1.017 2.336.876 3.16 7.198 4.42 8.507.526.425 2.087-1.501 2.17-.709.617 2.82-4.173 6.046-2.463 8.59.734.884 2.695-.283 3.429.6 1.768 1.577-1.086 4.921-.043 7.215.675 1.851 7.901.45 8.46 1.193 2.27 3.286-2.111 2.785 2.87 5.946.333.126 4.223-5.57 5.25-6.479 1.768-1.468 10.38-4.936 11.765-3.96.509.267.676-1.193 1.119-1.56a3.471 3.471 0 0 0 1.185-.925l.383.6c4.999-2.768-2.679 3.486-4.198 4.287-.76.4-2.787.933-2.086 1.5 2.945 2.094 6.282 3.345 8.001 4.446.684.41.009-1.442.434-1.968.568-.7 1.485 1.927 1.853-.675-.033-.317-.117-1.11.217-.984.526.425 2.627 5.17 2.961 5.296.492.108 6.7 1.218 6.641 2.186-.2 1.142-2.12 1.184-3.004 1.917-1.06.592-1.443-.008-2.478-.7l-.475.05c.29 4.295-5.892 1.9-7.828 1.783-1.46-.166-2.837.459-4.28.45-.317.034-.634.067-.826-.233-2.987-4.012 5.166-4.228-.132-7.356-.175-.142-1.135 1.401-1.594 1.61-1.077.433-2.203.391-3.28.825-.158.017-.283.35-.425.525-1.235.45-1.235-2.594-2.562-1.493-1.644 1.134-1.502 4.003-1.26 4.779.658 1.693-3.847-1.519-5.015-.434-.142.175-.126.333.033.316.734.884 1.744-.183 2.603.368.367.442-1.76.024-1.552.483.225.617.85 1.993.359 1.885-1.127-.042-.751-1.043-2.07 1.66-1.461 2.876-6.775-3.454-9.605 1.65-.943 1.7 4.856 3.494 5.273 4.412.225.617-1.452 1.434-1.302 2.86-.009 1.443 1.852 2.369 1.793 3.336-.167 1.46-4.724 6.905-6.018 8.323a1.632 1.632 0 0 0-.893-.868c-2.46-.542-5.24-1.051-7.91-2.052l-.174-.142zm-33.945-75.894c-1.377.625-1.852.675-2.211 1.834-.36 1.16-1.953 2.769-1.411 3.352.559.743 1.435 1.452 1.827.61.376-1.001 1.77-1.468 1.811-2.594.2-1.143 1.11-3.16 1.11-3.16l-1.126-.042zm75.844 58.193c.76-.4-.075.81-.25.667-.985-.217-.209-.458.25-.667zM177.902 207.897c.718.726 4.889 3.812 5.682 3.729.934-.259 2.628-.918 2.712-.125-.084 2.251 1.192 3.72 1.742 5.904l.159-.016c2.878 1.46 5.99 2.094 9.186 3.52 1.176.517 2.879-1.584 3.93-.733 1.402 1.134 4.195 7.89 7.091 6.464 2.754-1.251-3.428-3.645 1.695-6.747l.284-.35c-1.418-1.293-4.889-3.812-4.02-4.704.567-.7 2.436-1.218 1.877-1.96-4.663-6.239-4.363-3.386-10.704-5.764-2.828-.984.31-1.634.117-1.935-2.46-3.586-14.407-13.545-18.754-16.773.801 1.518 1.443 3.053 2.26 4.73.801 1.517 1.936 3.16 1.96 4.92.125 2.71.016 6.246-2.196 8.08-.584.543-1.66.976-3.054 1.443l.033.317z" stroke="#D8D9DF" fill="#ECECEC"/>
        <path d="M188.038 217.405a8.9 8.9 0 0 1 .208 3.503c-.059.967-4.373 4.144-3.447 5.329.7.567 1.26 1.31 1.96 1.876.526.426 1.46.167 1.828.61 1.384.975 1.726 2.702 1.91 4.445 3.73.409.867 2.151 3.428 3.644.684.41 2.537-.266 2.637.685.058 2.076-.552 3.902-.41 6.771.825.234 1.635.31 2.444.384.301-3.236 1.636-2.735 2.688-4.928.392-.843-1.527-.801-1.91-1.402-1.135-1.643-1.635-3.352-2.453-5.029-.592-1.059 2.92.334 3.438-.842.267-.508-1.36-2.26-1.568-2.718-1.651-3.512 1.97-2.61 1.711-3.545-.75-4.086-2.644-2.285-1.85-5.412-.46.208-.935.258-1.27.133-3.195-1.426-6.307-2.06-9.185-3.52l-.159.016z" stroke="#D8D9DF" fill="#ECECEC"/>
        <path d="M190.496 233.168c.442 2.677-.034 5.77 1.292 7.714 1.01 1.977 2.553 2.936 4.363 3.386-.141-2.869.469-4.695.41-6.771-.1-.951-1.952-.276-2.636-.685-2.561-1.493.301-3.235-3.429-3.644zm8.1 11.484c5.599-.108 11.783-3.801 12.742-2.3 2.811 3.87 1.81 3.494-.393 3.886-1.585.167 1.601 3.036-.318 3.077-.317.034-2.336-.876-2.203.392.058 2.077 2.36 5.68 4.296 5.797.894-2.177 1.962-4.212 3.239-5.788.426-.525-.768 1.843-.117 1.935 1.285.025 2.645-.759 3.338-1.793 3.455-3.727-9.896-2.644 3.756-6.963 2.17-.709 5.348 3.603 6.416 1.569 1.069-2.035-3.111-3.679-4.137-5.814-.417-.917-1.492-6.571-2.376-11.926-8.378 5.687-10.33-.676-12.055-6.422l-.3.191-.827-.233c-4.19 2.843 1.36 5.304-1.253 6.38-2.896 1.425-5.69-5.33-7.09-6.464-.702-.568-1.745.183-2.663.6-.793 3.127 1.101 1.326 1.851 5.412.259.934-3.362.033-1.71 3.545.208.458 1.834 2.21 1.567 2.718-.517 1.176-4.03-.217-3.438.842.818 1.677 1.318 3.386 2.452 5.03.384.6 2.303.558 1.91 1.4-1.051 2.194-2.386 1.693-2.687 4.93z" stroke="#D8D9DF" fill="#ECECEC"/>
        <path d="M181.098 326.755l-.017-.159c-2.894-4.662.252-6.755-.432-10.208-.258-.934-2.411-.067-2.511-1.017-1.017-3.578 3.472-3.57 3.823-6.33 1.094-6.363-8.058-12.61-8.975-15.237-.484-1.551 2.879-1.585 1.244-4.937-4.12-8.699.386-8.532 5.468-13.552.284-.35.593 1.06 1.652.468 1.678-.818-.766-4.245 1.211-5.254.601-.384 2.178.892 2.888.017 1.527-2.244-7.134-2.295-6.433-4.771.969-2.986-.966-9.19.896-11.309 0 0 .158-.017.141-.175.376-1 1.036-5.396.653-5.996-.4-.76-2.228-1.368-1.485-1.927 3.221-2.902 4.014-6.029 5.167-10.315.075-.81-.517-1.869-.283-2.694.392-.842 1.785 1.735 2.812.826 1.752-1.626 1.995-3.895 3.312-.509l.217-.984.05.476c.442 2.677-.034 5.77 1.292 7.714 1.01 1.977 2.553 2.936 4.363 3.386.826.234 1.636.31 2.445.384 5.599-.108 11.783-3.801 12.742-2.3 2.811 3.87 1.81 3.494-.393 3.886-1.585.167 1.601 3.036-.318 3.077-.317.034-2.336-.876-2.203.392.058 2.077 2.36 5.68 4.296 5.797-.751 2.001-1.31 4.303-1.745 6.27-.602 3.428 5.823 3.554 6.916 6.323 2.31 5.204 4.596 8.649 8.792 10.45l.159-.016.017.158.158-.016.159-.017.016.158.159-.016.158-.017.017.159.159-.017.158-.017.017.159.158-.017.159-.017.175.142.159-.016c.158-.017.175.141.175.141l.158-.016.159-.017.175.142.159-.017.158-.017s.017.159.175.142l.317-.033.017.158.317-.033.159-.017.158-.016.017.158.158-.016 2.428.225c1.46.167 2.888.017 4.348.184 1.794.292 3.462.918 5.256 1.21l.793-.084c-1.143-.2-2.528-1.176-3.237-.3-.568.7 1.643 1.91 2.227 1.368 1.327-1.101.952-3.144 1.42-4.795 6.85 2.644 6.584-2.935 13.009-2.81 4.822.134 8.435 2.478 12.857 1.853 1.427-.15.425 2.519.459 2.836.275 1.092 4.697 3.511 5.43 4.395 1.102 1.326 3.589.584 5.115 1.385 2.929 1.935 5.155 9.391 7.925 11.343 1.735 1.26 3.922.71 5.924 1.46 0 0-1.545 8.173-1.67 8.506.033.317.066.634.241.776-1.537 6.73-7.503 9.44-9.824 14.81-.785 1.685 3.279 2.219 2.853 2.744-1.026.91-2.42 1.376-3.447 2.285-1.468 1.276.366 6.53.09 8.481.05.476-2.112 5.83-1.411 6.397 3.57 3.47 7.726.31 7.166 5.655-.518 4.22-7.602 5.445-10.156 8.597-.159.017-.142.175.016.158 2.16 3.778 3.386 10.859 6.89 13.695.509.267 5.773 3.078 5.79 3.236.85 1.994-2.013 6.78-1.813 8.682.342 1.726 6.434-1.317 3.796 4.087-.41.683-.818 1.367-1.227 2.05-1.069 2.036-4.764-1.1-7.11-.534-.633.067-.325 1.477-.959 1.543-5.816 1.092-4.456 3.352-7.553 8.965l-.71.875c-.475.05-.968-.058-1.301-.183-2.303-.56-4.498-1.61-6.408-3.012-.509-.267.042-1.126-.325-1.568 0 0-22.17-5.039-26.616-9.218-.35-.283-.258-.934-.292-1.25.118-1.935.795-9.216-1.057-11.585-4.087-5.337-14.427 1.517-19.492.607-1.143-.2-1.167-1.96-2.027-2.51-4.246-2.277-9.953-4.721-12.58-9.892-.4-.76.292-1.793-.109-2.552-1.76-3.02-6.649-3.787-8.267-6.981-1.201-2.277-1.623-20.016-3.517-21.259-6.54-4.278-6.066-1.284-12.64-2.836zm31.873-71.919c.18-.179.164-.337.164-.337s.017.158-.164.337zm.283-.35l-.016-.158-.017-.159.198-.02-.017-.159-.017-.158-.13.654zM484.315 204.209c-1.393-2.578-4.53-1.927-3.529-4.596.409-.684-.75-1.042-1.051-.85-.601.383-.518 1.175-.96 1.542-2.02 2.135-2.153.867-4.089.75-.158.017-3.204.017-3.204.017-.417-.918-1.56-4.162-1.56-4.162-.859-.55-4.238-.676-4.638-1.435-1.235-2.594-1.076-5.654-4.964-6.047-2.92-.334-6.81 2.318-10.965 2.434-2.252-.083-2.643-5.329-4.037-4.862-3.28.825-4.782 4.828-4.957 4.686-4.714-3.67-7.23-18.465-12.028-22.927-1.977-2.035-6.7-4.262-7.032-7.431-.017-.159 1.493.484 1.777.134.3-.192 1.302-2.86 1.302-2.86-.208-.46-1.06.591-1.66.975-.3.192-8.562 3.944-9.322 4.344-.776.242-2.378.25-3.296.667-.317.033.217 2.06-.768 1.843-2.795-.668-1.234-2.594-5.298-.084-.46.208-.576-.901-.8-1.518-1.01-1.977 3.62-2.143 3.438-3.886-.05-.476-1.093.275-1.377.625-.91 2.018-3.904-3.595-5.29-1.527-.409.684.826.234.767 1.201.034.317-.509-.266-.826-.233-.317.033-1.043.75-.918.417.026-1.285 1.361-3.828-1.4-4.179-.493-.108.291 1.251.658 1.693.734.885-2.16-.734-2.32-.717-.158.017-2.912 1.267-3.437.842-.175-.142-.384-.6-.417-.917-.017-.159.125-.334.108-.492-.225-.618 1.946-4.37.836-7.298-.016-.158-.692-2.01-.692-2.01-.968-.058-2.912 1.268-3.246 1.143-2.144-.576-4.171-3.086-6.157-3.679-.158.017-.3.192-.3.192-.468 1.651-1.11.117-4.181 1.4-.159.017.784 1.36-.451 1.81-3.672 1.668-12.224 1.125-15.036.299-1.16-.359-1.845 2.277-2.162 2.31-2.361.408-3.704-1.693-6.633-.585-5.558 2.026-16.112-2.311-16.963-1.26-.41.683.717.725 1.067 1.009.367.442-.834 1.209-1.452 1.434-2.995.475 1.986.592 2.353 1.034 1.293 1.627-3.43-.6-2.687 1.885.258.934 5.198 2.177 4.522 3.37-.735 2.16-4.923-1.085-6.333-.777-.317.034.066.634-.234.826-5.207 2.31 1.2 2.277-1.261 4.778-.868.893-6.5.684-6.767 1.192-.802 1.526 7.59 8.174 7.324 8.683-.693 1.034-1.578 1.767-2.538 3.31-2.42 4.42-6.766-1.852-7.609-2.244-.843-.392-2.27 2.802-4.24 2.368-1.793-.292-3.778-6.972-7.908-8.14-1-.376-1.468 1.276-2.403 1.534-1.077.434-.884-2.31-1.06-2.452-1.034-.692-2.51-1.018-3.812-1.201-1.602.008-4.206 2.685-6.392 3.235-.935.258-2.661-5.488-4.013-6.147-1.526-.8-.1 5.137-2.487 3.786-1.352-.659 1.018-2.51 1.002-2.668-1.518-2.244-1.918-6.047-3.845-7.607-2.962-2.252-4.264.609-4.305-4.353-.016-.159-.3.191-.3.191-.476.05-1.093.275-1.586.167-1.952-.275-3.513 1.65-4.981-.117-.734-.884 2.679-.442.768-1.843-8.852-6.44 3.128 3.836-2.42-1.668-.016-.159-2.411 2.977-4.823 2.91-5.457-.068-4.69 1.133-5.941 1.425-1.252.292-2.837.459-3.93.734-.793.083-1.243-1.151-1.544-.96-.76.4-.16 6.105-1.587 6.255-6.817.717-1.133-7.731-4.587-7.047-4.264.608-9.531 9.973-9.832 10.165-2.17.708-4.055-1.977-5.074 3.577-.184 1.3 1.96 1.876 2.87 2.902.4.76-2.27 2.802-1.87 3.561.692 2.01 4.314-.133 5.298 3.128.292 1.251 2.067 10.517.323 10.7-1.268.133-4.772-2.703-1.102 1.718.543.584.926 1.184 1.31 1.785.6-.384.643-1.51 1.435-1.593.46-.209 1.96 1.877 4.464 1.293.476-.05.918-.417 1.394-.467.142-.175.142-.175.3-.192 2.395-.091 4.832-1.309 6.993-.574 2.16.734 2.81 3.87 4.688 4.954 1.51.642 4.039-1.226 4.823.134 4.287 7.239-5.15 7.43-6.002 11.525-.359 1.159 1.785 1.734 2.394 2.952.242.776-1.81-.45-2.67-1-2.035-1.069-3.963-2.628-6.124-3.362-8.168-2.987-6.392 3.235-4.515 7.363.192.3-.826-.234-1.177-.517-2.21-1.21-7.8-5.589-7.058-3.103 1.726 5.746 3.261 5.104 2.692 11.892-.058.968-1.594 1.61-1.352 2.385.209.46 7.442 6.748 7.809 7.19.509.267-6.534 3.41-5.15 7.43 16.022-6.17 13.567.977 18.597 10.702.592 1.06 2.761.35 3.763.726 1.452-4.478 8.483-29.088 11.154-31.131.885-.734 2.395-.092 3.68-.066 2.728.033 10.906-1.467 13.767-.166.835-1.209 1.703-2.101 2.32-2.326 1.678-.818 3.647-.384 5.424-.25.81.075 1.51.642 2.128.417 2.503-.583 2.164-11.442 10.656-.8 1.643 1.91-4.9 3.72-4.474 6.238.325 1.568 2.185 2.494 2.193 4.095.167 1.585-1.11 3.16-1.753 4.67-1.11.117-2.403 1.535-3.68 3.11 1.3 3.228 2.176 6.981 4.42 8.508 1.051.85 2.745.192 4.03.217 4.206.359 8.119 2.51 12.149 2.728 1.285.025 2.562-1.55 3.58-1.017 2.336.876 3.16 7.198 4.42 8.507.526.425 2.087-1.501 2.17-.709.617 2.82-4.173 6.046-2.463 8.59.734.884 2.695-.283 3.429.6 1.768 1.577-1.086 4.921-.043 7.215.675 1.851 7.901.45 8.46 1.193 2.27 3.286-2.111 2.785 2.87 5.946.333.126 4.223-5.57 5.25-6.479 1.768-1.468 10.38-4.936 11.765-3.96.509.267.676-1.193 1.119-1.56a3.471 3.471 0 0 0 1.185-.925c.709-.876 1.227-2.052 2.253-2.96.601-.384 1.202-.768 1.995-.85 5.056-.693 9.678 3.628 13.825 4.954.492.109-.259-.934-.325-1.568.025-1.284.668-2.793 1.519-3.844 1.419-1.751 3.33-.35 4.69-1.134.142-.175-.4-.759-.226-.617 2.228 1.368 6.5 5.405 9.795 4.738 7.227-1.4 20.469-1.991 25.716 3.705.718.726 1.685.785 2.687 1.16.984.217 1.969.434 2.861 1.301l.51.267c-.15-1.426-1.018-3.578-1.051-3.895.1-2.093 1.736-1.784 2.97-2.234 1.853-.676-5.222-.893.577-2.144.317-.033 1.16.36 1.285.026.251-3.712-5.363-9.85-1.908-13.578.726-.717-4.923-1.084-4.197-1.801 5.826-5.58 16.84-1.45 17.916-1.883 3.388-1.318-1.685-3.829-1.543-4.004 1.594-4.653 3.823-9.373 4.45-14.085.125-.333 5.94 1.619 6.575 1.552 4.998.276 5.006 1.877 9.354-.983 2.72-1.568-.9-8.557 1.179-11.659.409-.684 4.23-.925 5.132-1.5 1.96-1.168-.275-4.137 1.244-4.938.918-.416 1.87-.516 2.82-.616zm-83.496 23.034c10.156-5.553 16.487 1.31 27.268.178 1.744-.184 3.397-2.76 4.782-1.785 1.21.834-.285 3.395-1.678 3.861-6.017 2.235-15.962-3.93-21.97-3.137-.634.066-8.32 4.719-8.603 5.07-2.788 3.977-.403 8.372-1.496 8.647-2.22.234-4.638-7.523-2.225-10.5 1.01-1.067 2.737-1.409 4.097-2.192 0 0-.159.016-.175-.142z" stroke="#D8D9DF" fill="#ECECEC"/>
        <path d="M702.71 416.918c.759-.4 15.02-6.546 13.667-1.117-.593 1.985-3.03 3.203-3.606 5.346-.359 1.16 1.819 2.052 1.443 3.052-1.11 3.161-7.286 8.456-7.703 7.539-1.185-2.119-12.776 5.027-10.329-6.765.76-3.444 4.75-5.145 6.527-8.055zm67.514-249.809l-1.193-.675c-1.702-.943-3.546-1.71-5.64-1.81-3.396-.285 1 3.419.374 5.087-1.018 2.51-.275-1.093-2.12 1.184-.834 1.209 1.335 3.544.025 4.803-1.169 1.084-4.465 1.751-5.09 3.419-.627 1.668 4.78 1.26 3.812 4.245-.702 2.477-7.193 1.717-10.298 2.685-.934.258 1.451 4.653-.227 8.514-2.195 5.037-3.598 6.947-5.46 12.11l.176.14a1.017 1.017 0 0 0-.951.1c-.918.418.391 2.203-.193 2.745-1.435 1.592-4.431 2.067-5.741 3.327-3.33 3.393-3.416 11.733-8.314 15.452-5.166 4.228 3.088-4.17 1.912-7.73-.5-1.71-2.536-2.778-2.894-4.663-1.034-3.736 3.514-7.739-4.48-7.54-6.391.192-4.499 7.523-5.609 10.683-3.674 10.8-1.985-3.636-5.008 7.255-.593 1.985.274 4.137-.494 5.98-1.16 2.685-6.083 1.6-7.752 4.019-2.112 2.785 2.01 5.396 3.537 6.197.684.408 1.51.642 2.286.4 1.869-.517 3.505-3.252 5.507-2.501 7.851 3.02-1.437 10.724 9.987 5.038.601-.384-.308-1.41-.216-2.06.86-2.494 1.845-5.32 4.123-6.521 1.344-.943 3.296-.667 4.915-.517.951-.1 1.543.96 2.353 1.035 1.902-.2 5.942-4.47 7.61-3.844 1.352.659 1.618 3.194.8 4.562-.66 1.35-3.012.316-4.039 1.225-.884.734-.4 2.285-1.11 3.16-1.594 1.61-3.922 2.335-5.358 3.928-.442.367 1.536-.642 1.744-.183.45 1.234-.226 2.427-.585 3.586-.392.842-.576 2.143-1.494 2.56-.918.417-2.561-1.493-2.636-.684-.059.967 2.286.4 2.544 1.335.717 3.77-6.802 10.006-2.74 13.585.526.425 1.01-1.068 1.503-.96 2.553-.107 5.014.435 7.442.66 1.144.2 2.537 2.778 2.887 3.061 4.572 3.845-5.439-9.04 6.958 5.197.892.867.124 2.71 1.142 3.244 1.527.8 3.471-.525 5.123-.058 2.161.734 4.089 2.294 6.141 3.52 2.21 1.21-4.623 1.767-6.968 2.334-.776.242-1.393.467-2.01.692.316-.033.967.059 2.252.084 5.507.543 11.414 1.844 10.045 4.07-1.527 2.244-4.632 6.255-7.394 8.948.826.234 1.752 1.418 2.686 1.16 1.377-.625 1.27-3.177 2.663-3.644 1.393-.467 2.845 1.143 4.288 1.151 1.302.184 3.622-2.143 3.597-.859.058 2.077-3.664 3.27-3.606 5.346.167 1.584 2.287-2.644 3.747-2.477 5.874.985-2.946 3.995-2.638 5.404.292 1.251 3.446.76 3.087 1.919-.342 1.317-4.44.466-3.814 1.842.851 1.994 4.43.976 5.882 2.586.56.742-.75 2.002-1.527 2.243-.935.259-1.627-1.751-2.386-1.35-.918.416.216 2.059-.351 2.76-.851 1.05-2.996.475-3.196 1.617-.217.984 2.203-.392 2.778.51.542.583-.818 1.367-.893 2.176-.15 1.618.842 3.436.374 5.087-.092.65-2.127-.417-2.06.217.241.775 2.044-.376 2.285.4.726 2.327.416 7.005-1.979 7.097-.967-.059 1.336-2.544.51-2.777-1.477-.326-3.138.65-3.972 1.86-7.396 11.99 1.226 4.036 3.962 5.67 1.018.534-1.194 2.369-.76 3.445.275 1.092 3.32 1.093 2.77 1.952-.693 1.034-2.37-1.193-3.605-.743-.776.242-1.435 1.593-1.035 2.352.4.759 2.996-.475 2.603.367-.692 1.034-3.329.35-3.688 1.509-4.275 11.183 9.338-4.186.366 6.53-.568.7-7.727-.31-6.66 3.744.434 1.076 3.313-.509 3.43.6.291 1.252-9.999 11.625-10.25 12.292-2.337 5.212 7.353-4.778 1.226 4.037-1.102 1.718-3.046 3.044-5.04 3.894-1.077.434-2.846-1.143-3.713-.25-.743.558 2.861 1.3 2.102 1.7-1.06.593-2.07-1.384-3.02-1.284-3.28.826-6.217 3.377-7.837 6.271-.55.859 1.769 1.576 1.201 2.277-1.435 1.593-6.933-3.437-9.903-4.246-.493-.109 1.034.692 1.26 1.31.992 1.818 3.62 3.944 2.693 5.804-.643 1.51-3.203-3.028-4.372-1.944-1.168 1.085 1.727 2.703 2.052 4.27.067.634-1.134-1.642-1.56-1.117-.743.559.358 1.885-.193 2.744-.676 1.192-1.669 2.418-3.096 2.568-.951.1-1.551-2.56-2.452-1.985-.902.575.9 2.469.19 3.344-1.118 1.56-3.095 2.568-4.931 3.402-2.437 1.218-9.254 1.934-10.924 4.352-.692 1.034.449 10.367-.594 11.117-1.186.926-1.836-2.21-2.303-3.603-.55-2.185.752-5.045-.557-6.83-.751-1.043-6.584 2.935-6.918 2.81-1.619-.15-2.328-2.319-3.963-2.628-.65-.092.5 1.71.058 2.077-2.103 1.342-4.147 1.717-6.017 2.234-2.861-1.301-6.333 2.268-9.437.191-.525-.425-1.184-2.118-3.079-.317-.726.717-.55-2.185-1.284-3.07-.91-1.025.31-4.678-.975-4.703-2.237.075-4.673 1.292-7.035 1.7-2.52.426-3.47-2.518-5.882-2.585-2.253-.084-2.955 5.437-3.84 6.17-3.129 2.252-4.997-.275-5.532 3.786.016.159-.109.492-.267.51-3.664.224-6.316-3.663-7.778 2.258.017.159-4.78-1.26-5.448-1.51-.667-.25-1.269 3.178-1.553 3.528-.3.192-.617.225-1.076.433-1.427.15-3.855-.075-3.98.259-2.396 6.18 9.201 9.766-1.18 11.658-.475.05-1.317-3.386-2.051-4.27-.175-.142-.35-.283-.509-.267-.668-.25-8.813 7.655-8.186 2.943.092-.65-1.16-.358-1.652-.467-.985-.217-.217-2.06-.776-2.802-.192-.3-7.084 1.225-7.167.433-.167-1.585 2.504-6.672 2.137-7.114-1.601-3.035-4.614.325-6.35-.934-.35-.284-.7-3.611-.716-3.77.025-1.284-2.445-.384-2.17-2.335.11-.492 1.987-2.452 1.211-2.21-1.886.358-11.082 4.369-11.273 4.069-.735-.885 1.719-1.943 1.46-2.878-.116-1.109-1.652-.467-2.21-1.209-.56-.742 2.505-9.715 3.481-11.1.284-.35 4.765-1.942 4.298-3.335-1.109-2.928-1.283-9.157-3.1-14.253-.276-1.093-2.37 1.851-3.105.967-8.876-11.243-5.04-2.194-10.287-4.846-1.177-.518-8.102.691-8.12.533-.224-.618 1.954-2.769 2.38-3.294.567-.7-.534-2.027-1.393-2.577-.668-.25-2.763 2.693-2.72 1.567-.009-1.601 1.61-1.45 1.619-2.894-.034-.317-.635.067-.935.259-1.076.433-1.168-1.96-2.26-1.685-4.465 1.75-2.346 3.61-4.483 4.636-2.311.884-5.481-1.827-7.05-1.501-1.11.116-1.803 1.15-2.67 2.042-2.179 2.152-.685 2.636-3.865 4.412-1.82.992-2.286-.4-4.197 1.242-2.796 2.377-2.839 6.546-6.051 8.005-1.06.592-2.312.884-3.422 1-.934.26-1.76.026-2.553.11l-.159.016c-.166-1.585-1.476-3.37-3.153-2.553-2.42 1.376-4.448 1.91-7.894 1.15-.334-.125.217-.984.009-1.442-.117-1.11-2.286-.4-3.396-.284-5.073.533-5.35 8.573-8.296 9.523.016.158.016.158-.125.334.016.158-.126.333-.109.492 0 0 .017.158-.142.175l.017.158-.017-.158c.159-.017.142-.175.142-.175-.017-.159.125-.334.109-.492.141-.176.141-.176.125-.334l-1.001-.375c-.467-1.393.593-5.03-.266-5.58-1.051-.85-6.993.575-5.591 1.71l.017.158c-1.778-.134-7.91.991-8.07 1.008-1.143-.2-3.12-2.235-4.405-2.26-1.935-.117-.576 2.143-1.877 1.96-1.127-.043-1.377-2.42-2.47-2.144-1.852.675 1.026 2.135-1.177 2.526-.158.017-.492-.108-.509-.266-1.976-5.08-4.347-.184-7.517-2.895-1.085-1.168 1.402-1.91.543-2.46-2.295-2.002-.06 4.011-8.119-2.511-.876-.71.81-2.97-1.918-3.003-1.127-.042-2.512 2.027-3.405 1.16-3.92-3.754-7.409-3.388-12.014-7.55-.7-.567-.04-1.918-.725-2.326-5.14-3.145-6.685 5.028-8.637 1.708l-1.777-.133.492.108c-.016-.158.126-.333.126-.333.317-.034 1.318.342 1.143.2-4.622-4.32-7.459-3.862-11.898-6.44-2.386-1.35-2.127-3.46-4.129-4.211-.843-.392-2.37 1.85-2.47.9-.392-2.202.16-3.06.051-5.613-.1-.95-2.46-3.586-2.786-5.154-.05-.475 1.127.042 1.586-.166 2.203-.392 3.203 3.027 6.124.317.585-.542 1.644-1.134 1.42-1.751-1.318-3.386-2.712-2.92-4.756-5.588 0 0-1.05-3.895-1.409-5.78-.033-.317.426-.525.885-.734l-.3-2.852c-1.335-.5-3.287-.776-3.863-1.676-.992-1.819-1.016-6.622-2.243-7.615l-1.126-.042-2.378.25c-1.97-.433-5.382-.876-7.009-2.627-.367-.442.31-1.635-.15-1.426-5.674 3.96-3.386-4.771-4.68-6.397-2.41-3.111-6.958-2.153-9.886-4.088-.334-.125-.7-.567-1.051-.85-.751-1.043 2.52-.426 3.771-.717l-.191-.3c-.51-.268-.876-.71-1.227-.993.668.25 1.335.5 2.02.909.692-1.034-.518-1.868-.175-3.186.075-.809.569-6.788.218-7.072-.892-.867-13.016-1.836-7.066-4.704.918-.417-1.135-1.643-1.393-2.577-.809-3.12 1.452-1.435 2.337-2.168a.876.876 0 0 0 .392-.843c.067-2.41-2.102-1.701.71-3.92 3.238-2.743 7.902-2.592 11.716-4.435 1.36-.783.458 2.836.617 2.82 1.385.975 3.646-.384 4.648-.009 1.685.784 3.163-4.978 4.223-5.57 2.278-1.2 6.35.935 9.279-.174 1.376-.626 2.236-3.12 3.755-3.92 1.06-.592 8.804-3.168 10.94-4.193l.184-1.301-.017-.159.51.267c-.15-1.426-1.018-3.578-1.051-3.895.1-2.093 1.736-1.784 2.97-2.234 1.853-.676-5.222-.893.577-2.144.317-.033 1.16.36 1.285.026.251-3.712-5.363-9.85-1.908-13.578.726-.717-4.923-1.084-4.197-1.801 5.826-5.58 16.84-1.45 17.916-1.883 3.388-1.318-1.685-3.829-1.543-4.004 1.594-4.653 3.823-9.373 4.45-14.085.125-.333 5.94 1.619 6.575 1.552 4.998.276 5.006 1.877 9.354-.983 2.72-1.568-.9-8.557 1.179-11.659.409-.684 4.23-.925 5.132-1.5 1.96-1.168-.275-4.137 1.244-4.938.918-.416 1.87-.516 2.82-.616-.016-.159-.016-.159-.191-.3l.158-.017 2.987.967c-.267.51-.217.984-.008 1.443 3.311 5.58 11.772 6.773 17.128 8.934.668.25.9 2.468 1.093 2.769 1.343 2.101 3.153 2.552 4.162 4.528 2.294 5.046-2.605 8.765.607 13.394.208.459 16.604-.624 17.764-.265 5.415 1.193 7.767 5.271 13.375 3.72.776-.241-.234.826 1.218 2.436 1.243 1.151 5.838 9.8 7.741 9.6 5.123-.058 16.505-1.575 21.512-2.742 3.279-.825 5.332-2.643 8.82-3.01 7.927-.833 14.117 3.163 22.362 2.296 1.585-.166 2.812-2.218 4.43-2.068.652.092-.15 1.618.518 1.869.842.392 1.852-.676 2.82-.617.317-.034.542.584.684.408 4.282-3.493 8.814-10.698 13.93-12.358 6.683-1.984 14.277-2.942 18.592-9.163.818-1.368.852-4.095 1.812-5.637.267-.51 5.575-4.912 4.824-5.954-1.118-1.485-11.297-6.823-4.67-10.884 3.48-1.968 7.667 1.276 11.414-1.2 2.262-1.36 2.655-5.245 3.231-7.389.718-2.318 4.94-1.8 6.676-3.585 3.489-3.41.419-5.17 1.938-9.015 1.645-4.178 2.987.968 3.706-4.395.15-1.618 14.128-7.412 13.886-8.188-.558-3.786-16.453-7.082-17.739-4.063-.517 1.176-.384 2.443-.885 3.778-.359 1.159-2.653-.843-3.73-.41-1.076.434-8.67 7.48-8.653 1.551.075-.809 1.169-1.084 1.26-1.735.076-3.852-1.25-8.84-1.557-13.293l-.592-1.06-.083-.792c2.269.242 6.257 1.586 8.344.085.742-.56 1.185-3.97 2.037-5.02.55-.86 3.48-1.968 3.313-3.553-.225-.617-.308-1.41-.993-1.818-4.838-3.337.83-14.987-1.072-17.83-1.185-2.119-2.778-3.554-4.99-1.719-.442.367-.584.542-.95.1-.735-.884.159-6.105 1.01-7.155 9.09-12.65 30.877-14.3 36.924-4.041.225.617 2.953.65 3.003 1.126.192.3 12.756 10.034 13.532 9.792 7.778-2.26 5.959-4.311 13.468-3.018 1.636.309 4.015-2.985 4.657-1.45.609 1.217 6.114 7.848 8.46 7.281 6.75-1.35 10.8-19.238 14.93-18.07.51.266.409 2.36.76 2.643.842.392 1.968.434 2.67 1.001.525.426.758 2.644.65 3.136-.86 2.494 4.778 13.436 4.852 18.715.15 1.426 3.045 3.044 1.592 4.478-1.168 1.084-7.51 1.751-7.493 1.91-.184 1.3.442 2.676.1 3.994-.36 1.16-2.262 1.36-2.112 2.785-.092.65 1.143.2 1.51.643 1.894 1.242 7.758 6.714 8.592 8.549 2.119 4.904.066 3.678-1.337 8.631-.125.334.618-.225.935-.258.951-.1 1.243 1.15 1.944 1.718l1.034.692z" stroke="#D8D9DF" fill="#ECECEC"/>
        <g id="city-points" transform="rotate(-6 2253.425 -3203.496)" fill="#7381FF">
            <circle class="city-point" data-city="macao" data-country="china" cx="364.222" cy="202.017" r="5"/>
            <circle class="city-point" data-city="manila" data-country="philippines" cx="442.838" cy="250.259" r="5"/>
            <circle class="city-point" data-city="bangkok" data-country="thailand" cx="255" cy="298.018" r="5"/>
            <circle class="city-point" data-city="hanoi" data-country="vietnam" cx="294.376" cy="227.09" r="5"/>
            <circle class="city-point" data-city="tokyo" data-country="japan" cx="510.728" cy="5.366" r="5"/>
            <circle class="city-point" data-city="seoul" data-country="south korea" cx="429.189" cy="39.652" r="5"/>
            <circle class="city-point" data-city="beijing" data-country="china" cx="347.618" cy="43.465" r="5"/>
            <circle class="city-point" data-city="shanghai" data-country="china" cx="405.589" cy="114.097" r="5"/>
            <circle class="city-point" data-city="mumbai" data-country="india" cx="5.378" cy="237.889" r="5"/>
            <circle class="city-point" data-city="new_delhi" data-country="india" cx="47" cy="167.018" r="5"/>
            <circle class="city-point" data-city="pune" data-country="india" cx="17.378" cy="252.889" r="5"/>
        </g>
    </g>
</svg>
