<svg viewBox="0 0 116 116" xmlns="http://www.w3.org/2000/svg"><title>Group Copy 4</title><defs><linearGradient x1="50%" y1="0%" x2="50%" y2="97.734%" id="a"><stop stop-color="#FD30BF" offset="0%"/><stop stop-color="#FC3159" offset="100%"/></linearGradient></defs><g fill="none" fill-rule="evenodd"><path d="M86.266 4C101.875 4 112 14.125 112 29.734v56.532C112 101.875 101.875 112 86.266 112H29.734C14.125 112 4 101.875 4 86.266V29.734C4 14.125 14.125 4 29.734 4h56.532z" stroke="#ECECEC" stroke-width="2" fill="#FFF"/><g transform="translate(27 35)" stroke="url(#a)" fill="url(#a)"><path d="M44.286 2.21c1.223 0 2.214.99 2.214 2.21s-.991 2.21-2.214 2.21a2.212 2.212 0 0 1-2.215-2.21c0-1.22.992-2.21 2.215-2.21zm0-2.21a4.43 4.43 0 0 0-4.429 4.42 4.43 4.43 0 0 0 8.857 0A4.43 4.43 0 0 0 44.286 0zM44.286 39.782c1.223 0 2.214.99 2.214 2.21s-.991 2.21-2.214 2.21a2.212 2.212 0 0 1-2.215-2.21c0-1.22.992-2.21 2.215-2.21zm0-2.21a4.43 4.43 0 0 0-4.429 4.42 4.43 4.43 0 0 0 8.857 0 4.43 4.43 0 0 0-4.428-4.42zM17.714 20.996c1.223 0 2.215.99 2.215 2.21s-.992 2.21-2.215 2.21a2.212 2.212 0 0 1-2.214-2.21c0-1.22.991-2.21 2.214-2.21zm0-2.21a4.43 4.43 0 0 0-4.428 4.42 4.43 4.43 0 0 0 8.857 0 4.43 4.43 0 0 0-4.429-4.42zM24.263 22.101H62v2.21H24.263a6.612 6.612 0 0 0 0-2.21zm-13.192 1.105c0 .377.034.746.095 1.105H0v-2.21h11.166c-.061.36-.095.729-.095 1.105zm39.763 17.681H62v2.21H50.834c.061-.36.095-.728.095-1.105 0-.376-.034-.745-.095-1.105zm-13.191 1.105c0 .377.033.746.094 1.105H0v-2.21h37.737c-.06.36-.094.729-.094 1.105zM50.834 3.315H62v2.21H50.834c.061-.36.095-.728.095-1.105 0-.376-.034-.745-.095-1.105zm-13.097 0a6.612 6.612 0 0 0 0 2.21H0v-2.21h37.737z"/></g></g></svg>
