<svg viewBox="0 0 110 110" xmlns="http://www.w3.org/2000/svg"><title>Group</title><defs><linearGradient x1="50%" y1="2.381%" x2="50%" y2="95.329%" id="a"><stop stop-color="#FACC25" offset="0%"/><stop stop-color="#FD9426" offset="100%"/></linearGradient></defs><g fill="none" fill-rule="evenodd"><path d="M83.266 1C98.875 1 109 11.125 109 26.734v56.532C109 98.875 98.875 109 83.266 109H26.734C11.125 109 1 98.875 1 83.266V26.734C1 11.125 11.125 1 26.734 1h56.532z" stroke="#ECECEC" stroke-width="2" fill="#FFF"/><path d="M75.605 48.827c0-16.775-9.024-22.482-17.463-23.754 0-.085.017-.171.017-.275C58.16 22.684 56.286 21 54 21c-2.286 0-4.09 1.684-4.09 3.798 0 .104 0 .19.017.275-8.457 1.29-17.532 7.013-17.532 23.788 0 19.56-4.864 21.656-11.395 27.156h66c-6.497-5.517-11.395-7.631-11.395-27.19zM28.425 73.25c1.478-1.547 2.819-3.162 3.902-5.466 2.062-4.348 2.99-10.175 2.99-18.94 0-7.975 2.149-13.819 6.377-17.394 3.936-3.317 8.886-4.005 12.34-4.005 3.455 0 8.405.688 12.307 4.005 4.21 3.558 6.359 9.367 6.359 17.342 0 14.403 2.56 20.161 6.927 24.458H28.425zM54.035 87c4.606 0 8.387-3.42 8.885-7.39H45.148c.482 3.97 4.28 7.39 8.886 7.39z" stroke="url(#a)" fill="url(#a)" transform="translate(1 1)"/></g></svg>
