<svg class="email-bar__icon" viewBox="0 0 28 28" xmlns="http://www.w3.org/2000/svg"><title>Group</title><g fill="#929292" fill-rule="evenodd"><path d="M28 15.222v-2.334l-2.427-.635-.19-.963 2.012-1.524-.89-2.159-2.507.35-.547-.773 1.29-2.166-1.647-1.648-2.202 1.269-.78-.533.387-2.553-2.15-.897-1.575 2.065-.897-.19L15.243 0H12.91l-.67 2.545-.883.175L9.79.605l-2.158.897.35 2.604-.853.525-2.281-1.364L3.2 4.916l1.37 2.297-.488.766-2.587-.365-.89 2.16 2.107 1.582-.175.89L0 12.895v2.334l2.53.65.174.91-2.07 1.554.897 2.152 2.551-.365.518.824-1.305 2.232 1.647 1.649 2.202-1.328.816.533-.328 2.501 2.158.89 1.502-2.027.977.182L12.91 28h2.333l.605-2.414.991-.19 1.51 1.977 2.157-.89-.364-2.458.743-.54L23 24.718l1.648-1.648-1.225-2.108.576-.832 2.464.35.896-2.151-1.982-1.495.197-.985L28 15.222zm-2.063 3.5l-.204.49-2.326-.329-1.377 2.028 1.144 1.976-.379.38-1.99-1.16-1.94 1.327.35 2.32-.488.204L17.3 24.09l-2.399.474-.568 2.275h-.525l-.613-2.283-2.376-.474-1.422 1.926-.488-.204.32-2.37L7.225 22.1l-2.1 1.276-.371-.372 1.24-2.123-1.32-2.012-2.42.342-.197-.481 1.96-1.473-.451-2.32-2.406-.62v-.525l2.406-.613.459-2.304-1.99-1.496.197-.48 2.456.35 1.298-1.956-1.312-2.188.364-.364 1.502.897.67.401 2.034-1.327-.328-2.466.489-.204 1.48 1.999 2.296-.445.641-2.422h.525l.605 2.407 2.311.46 1.465-1.955.481.204-.364 2.414 1.983 1.32 2.063-1.181.372.372-1.218 2.042 1.342 1.97 2.369-.336.204.488-1.91 1.437.474 2.37 2.281.591v.525l-2.288.591-.474 2.385 1.895 1.445z"/><path d="M14 4.667a9.333 9.333 0 1 0 0 18.666 9.333 9.333 0 0 0 0-18.666zM5.833 14c0-2.181.85-4.232 2.392-5.775A8.113 8.113 0 0 1 14 5.833a8.25 8.25 0 0 1 1.61.158l-2.026 7.579-7.594 2.033A8.253 8.253 0 0 1 5.833 14zM14 22.167a8.113 8.113 0 0 1-5.775-2.392 8.137 8.137 0 0 1-1.92-3.026l7.542-2.005 5.464 5.46A8.106 8.106 0 0 1 14 22.167zm6.136-2.778l-5.465-5.47 2.045-7.625a8.136 8.136 0 0 1 3.059 1.931A8.113 8.113 0 0 1 22.167 14a8.106 8.106 0 0 1-2.03 5.389z"/></g></svg>
