<svg viewBox="0 0 116 116" xmlns="http://www.w3.org/2000/svg"><title>Group Copy</title><defs><linearGradient x1="50%" y1="2.381%" x2="50%" y2="93.258%" id="a"><stop stop-color="#27A3F5" offset="0%"/><stop stop-color="#273BF5" offset="100%"/></linearGradient></defs><g fill="none" fill-rule="evenodd"><path d="M86.266 4C101.875 4 112 14.125 112 29.734v56.532C112 101.875 101.875 112 86.266 112H29.734C14.125 112 4 101.875 4 86.266V29.734C4 14.125 14.125 4 29.734 4h56.532z" stroke="#ECECEC" stroke-width="2" fill="#FFF"/><path d="M26.03 48.706c-.127 1.205-.46 4.33-.457 5.289.046 15.667 12.78 28.4 28.427 28.4 10.255 0 19.755-5.57 24.79-14.534l2.11 1.19C75.434 78.775 65.127 84.818 54 84.818c-16.79 0-30.49-13.512-30.843-30.253-.003-.147 0-.295-.002-.443 0-.071-.003-.142 0-.214 0-.878.253-3.39.407-4.86l-4.851 4.86L17 52.195l7.967-7.983 7.967 7.983-1.71 1.714-5.193-5.203zm-.208-.208l-1.547-.164.692-.693.855.857zm58.789 10.099l4.678-4.688L91 55.623l-7.967 7.983-8.043-8.058 1.636-1.639 6.407 6.269.983-.985-1.869-.197c.112-1.061.285-4.22.279-5.263C82.33 38.107 69.616 25.424 54 25.424c-10.255 0-19.755 5.57-24.79 14.534l-2.11-1.19C32.566 29.042 42.873 23 54 23c16.897 0 30.662 13.684 30.848 30.572l-.002.337c0 .901-.127 3.304-.235 4.688z" stroke="url(#a)" fill="url(#a)" transform="translate(4 4)"/></g></svg>
