<svg viewBox="0 0 116 116" xmlns="http://www.w3.org/2000/svg"><title>Group Copy 2</title><defs><linearGradient x1="50%" y1="0%" x2="50%" y2="100%" id="b"><stop stop-color="#17E546" offset="2.645%"/><stop stop-color="#ABE617" offset="97.997%"/></linearGradient><linearGradient x1="50%" y1="2.645%" x2="50%" y2="97.997%" id="a"><stop stop-color="#17E546" offset="0%"/><stop stop-color="#ABE617" offset="100%"/></linearGradient></defs><g fill="none" fill-rule="evenodd"><path d="M86.266 4C101.875 4 112 14.125 112 29.734v56.532C112 101.875 101.875 112 86.266 112H29.734C14.125 112 4 101.875 4 86.266V29.734C4 14.125 14.125 4 29.734 4h56.532z" stroke="#ECECEC" stroke-width="2" fill="#FFF"/><path d="M37.95 25.3V14.95C37.95 6.694 31.257 0 23.002 0 14.743 0 8.05 6.694 8.05 14.95V25.3H0v34.5h46V25.3h-8.05zm-27.6-10.35c0-6.975 5.676-12.65 12.652-12.65 6.974 0 12.648 5.675 12.648 12.65V25.3h-25.3V14.95zM43.7 57.5H2.3V27.6h41.4v29.9z" stroke="url(#a)" fill="url(#b)" transform="translate(35 28)"/><path d="M23 34.5a4.6 4.6 0 0 0-1.15 9.055V48.3h2.3v-4.745A4.6 4.6 0 0 0 23 34.5zm0 6.9a2.303 2.303 0 0 1-2.3-2.3c0-1.268 1.032-2.3 2.3-2.3 1.268 0 2.3 1.032 2.3 2.3 0 1.268-1.032 2.3-2.3 2.3z" fill="url(#a)" transform="translate(35 28)"/></g></svg>
